<svg xmlns="http://www.w3.org/2000/svg" viewBox="0 0 1500 1500">
  <rect width="1500" height="1500"/>
  <g stroke="#06AD92" stroke-linecap="square" stroke-linejoin="round" stroke-width="2">
    <path d="M750 0L750 1500M0 749L1500 749"/>
  </g>
  <g fill="#00CAA9" transform="rotate(-15 1420.3 125.408)">
    <path d="M105.344163,163.166832 C138.496366,163.166832 165.371536,136.2383 165.371536,103.020274 C165.371536,69.8022466 138.496366,42.8737152 105.344163,42.8737152 C72.19196,42.8737152 45.3167899,69.8022466 45.3167899,103.020274 C45.3167899,136.2383 72.19196,163.166832 105.344163,163.166832 Z M477.549401,570.971257 C537.698979,694.868343 482.349228,840.137131 271.821823,871.938569 C117.034257,899.174746 130.356222,968.516026 105.153839,1013.90855 C105.143095,1013.40972 105.132537,1012.90841 105.122164,1012.40465 L105.106512,1012.47318 L99.9499538,756.903195 L99.9499538,211.417117 C44.2839322,208.60352 0.0131119596,162.488494 0.0131119596,106.012935 C0.0131119596,47.7246984 47.1714297,0.472747201 105.344163,0.472747201 C163.516896,0.472747201 210.675214,47.7246984 210.675214,106.012935 C210.675214,144.84301 189.746962,178.775326 158.576011,197.103111 L158.575984,233.634165 L317.138856,243.950898 L317.138856,305.232298 L158.575984,315.54903 L158.575984,354.398414 C158.670155,354.455399 158.76458,354.512775 158.859261,354.570548 C230.959351,398.362206 368.916625,372.76893 448.777146,255.090907 C610.497328,366.910593 728.421301,343.028491 728.421301,343.028491 C728.421301,343.028491 703.537879,441.277536 668.307674,472.886924 C614.334009,442.748791 560.319625,427.231373 456.151524,332.019583 C365.382175,431.933954 259.199117,430.719845 193.920612,425.628515 C167.479047,423.566232 159.021421,429.105505 159.021421,457.723112 C159.021421,459.068979 158.865621,459.965261 158.575984,460.455726 L158.575984,709.728233 C167.263105,767.581291 190.135305,808.170082 250.289304,802.288125 C458.19101,781.95915 472.154486,681.482905 433.755677,589.986638 L406.997957,601.604935 L376.389572,481.914595 L383.265868,426.402741 L434.412338,451.973829 L504.522491,559.259436 L477.549399,570.97125 L477.549401,570.971257 Z M427.741779,402.016668 L460.657744,365.65337 L608.069975,481.384467 L525.168777,546.714356 L427.741779,402.016668 Z M184.856934,459.179606 L237.304798,459.89994 L267.489368,620.980471 L175.63763,620.73633 L184.856934,459.179606 Z M278.098669,454.255496 L328.998845,443.75909 L384.694996,605.725211 L285.032443,619.249345 L278.098669,454.255496 Z" transform="translate(519.214)"/>
    <path d="M105.344163,163.166832 C138.496366,163.166832 165.371536,136.2383 165.371536,103.020274 C165.371536,69.8022466 138.496366,42.8737152 105.344163,42.8737152 C72.19196,42.8737152 45.3167899,69.8022466 45.3167899,103.020274 C45.3167899,136.2383 72.19196,163.166832 105.344163,163.166832 Z M477.549401,570.971257 C537.698979,694.868343 482.349228,840.137131 271.821823,871.938569 C117.034257,899.174746 130.356222,968.516026 105.153839,1013.90855 C105.143095,1013.40972 105.132537,1012.90841 105.122164,1012.40465 L105.106512,1012.47318 L99.9499538,756.903195 L99.9499538,211.417117 C44.2839322,208.60352 0.0131119596,162.488494 0.0131119596,106.012935 C0.0131119596,47.7246984 47.1714297,0.472747201 105.344163,0.472747201 C163.516896,0.472747201 210.675214,47.7246984 210.675214,106.012935 C210.675214,144.84301 189.746962,178.775326 158.576011,197.103111 L158.575984,233.634165 L317.138856,243.950898 L317.138856,305.232298 L158.575984,315.54903 L158.575984,354.398414 C158.670155,354.455399 158.76458,354.512775 158.859261,354.570548 C230.959351,398.362206 368.916625,372.76893 448.777146,255.090907 C610.497328,366.910593 728.421301,343.028491 728.421301,343.028491 C728.421301,343.028491 703.537879,441.277536 668.307674,472.886924 C614.334009,442.748791 560.319625,427.231373 456.151524,332.019583 C365.382175,431.933954 259.199117,430.719845 193.920612,425.628515 C167.479047,423.566232 159.021421,429.105505 159.021421,457.723112 C159.021421,459.068979 158.865621,459.965261 158.575984,460.455726 L158.575984,709.728233 C167.263105,767.581291 190.135305,808.170082 250.289304,802.288125 C458.19101,781.95915 472.154486,681.482905 433.755677,589.986638 L406.997957,601.604935 L376.389572,481.914595 L383.265868,426.402741 L434.412338,451.973829 L504.522491,559.259436 L477.549399,570.97125 L477.549401,570.971257 Z M427.741779,402.016668 L460.657744,365.65337 L608.069975,481.384467 L525.168777,546.714356 L427.741779,402.016668 Z M184.856934,459.179606 L237.304798,459.89994 L267.489368,620.980471 L175.63763,620.73633 L184.856934,459.179606 Z M278.098669,454.255496 L328.998845,443.75909 L384.694996,605.725211 L285.032443,619.249345 L278.098669,454.255496 Z" transform="matrix(-1 0 0 1 729.897 0)"/>
  </g>
</svg>
