<svg xmlns="http://www.w3.org/2000/svg" width="445" height="94" fill="none" viewBox="0 0 445 94"><path fill="#013767" d="M409.9 4h24l6.4 6.3v57.4h-24.1l-6.3-6.2zm.8.8v55.8h22.4V4.8zm-.8 65.8h24l6.4 6.3v13h-24.1l-6.3-6.3zm.8.9v11.3h22.4V71.5z"/><path fill="#013767" d="M388.6 32.2v-28h16.6l6.3 6.4V90H380l-5.7-5.6V90h-20.3l-6.3-6.3V4.3h24l6.3 6.3v4.8h1.2l6.3 6.3V29zm15.7-27.1h-14.8v44.3h-3.7v-11h-3.7v-11h-3.7V16.2H371V5.1h-22.2v77.7h18.6V49.5h3.6v22.2h3.7v11h29.7z"/><path fill="#013767" d="M282.2 15.4h7.3V4.3H332l6.3 6.3v4.8h1.1l6.4 6.3V29l3.7 3.7v35h-3.7v11h-7.5V90h-42.5l-6.3-6.3V79h-1l-6.3-6.4v-7.4l-3.8-3.6v-35h3.8zM290.4 5v11.1H283v11.2h-3.7v33.2h3.7v11h7.4v11.2h40.8V71.7h7.4v-11h3.7V27.3h-3.7V16.2h-7.4V5.1zm11.1 22.2h3.8v-11h11v11h3.8v33.3h-3.8v11h-11v-11h-3.8zm14 .8v-4.7h-3v11.1h-3.8v27.9l3.7 3.6v4.7h3v-11h3.8V32z"/><path fill="#013767" d="M253.4 32.1V4.3h20.2l6.4 6.3V79h-7.5v11h-24l-6.2-6.3V79h-3v11h-24l-6.4-6.3V79h-1.1l-6.3-6.4V4.3h20.3l6.3 6.3v16h19.6zm19.4-27h-18.5v44.4h-3.8v-11H247V27.3h-18.7v11h-3.6v11h-3.7V5.2h-18.6v66.6h7.4v11H232v-11h3.7v-11h3.7v11h3.7v11h22.3v-11h7.4zM154 10V4.2h20.3l6.3 6.3V79h-7.4v11h-31.4l-6.3-6.3V79h-1.1l-6.3-6.4V4.3h20.3zM173.5 5h-18.6v66.6h-7.3V5h-18.7v66.6h7.4v11h29.8v-11h7.4z"/><path fill="#013767" d="M62.4 15.4h7.4V4.3h42.5l6.3 6.3v4.8h1.1l6.4 6.3V29l3.7 3.7v35H126v11h-7.5V90H76.1l-6.3-6.3V79h-1l-6.4-6.4v-7.4l-3.7-3.6v-35h3.7zM70.7 5v11.1h-7.4v11.2h-3.8v33.2h3.8v11h7.4v11.2h40.8V71.7h7.4v-11h3.7V27.3H119V16.2h-7.4V5.1zm11.1 22.2h3.8v-11h11v11h3.7v33.3h-3.7v11h-11v-11h-3.8zm14 .8v-4.7h-3.1v11.1H89v27.9l3.7 3.6v4.7h3v-11h3.8V32z"/><path fill="#013767" d="M33.7 26.5V4.3h20.2l6.4 6.3v24h-3.8v11H53v11h-7.4V90H25.2l-6.3-6.3v-27h-1.2l-6.3-6.3V43l-3.7-3.7v-7.4L4 28V4.3h20.3l6.3 6.3v16zM53 5.1H34.5v22.3h-11V5H4.8v22.2h3.8v11.1h3.6v11h7.5v33.4h18.6V49.5h7.3v-11h3.8V27.2H53z"/><path fill="#000" d="m440.3 77-6.3-6.4h-22.5V63l4.7 4.7h24.1V10.3L434 4h-24.1v5l-4-4V0h29.7l.9.8h.6v.7l7.2 7.1v63.2h-3.5l3.5 3.5v18.6h-29.8l-4-4h1v-4.7l4.7 4.7h24.1zm-7.2-5.5v11.3h-21.6V71.5zm-18.4 7.3h14.4v-3.3h-14.4zm18.4-74v55.8h-21.6v-50l-.8-.7v-5zm-18.4 51.8h14.4V8.8h-14.4z"/><path fill="#000" d="m347.8 83.6 6.3 6.3h20.3v-5.6l5.7 5.6h31.4v-4.7l4 4V94h-63l-7.2-7.1h-.6v-.6l-.9-.9v-6.4h2V67.7h2zM371 5.1v11.1h7.5v11.2h3.7v11h3.7v11h3.7V5h14.8v77.7h-29.7V71.7h-3.7V49.5h-3.6v33.3h-18.6v-15h.8v-35l-.8-.8V5zm44.6 66.4v11.3h-4V71.5zm0-4.5v3.6h-4V63zm-4-56.4-.8-.7v-5h.7l4 4v51.7h-4zM406.9.3l.8.8h.6v.7l2.3 2.2h-.7v5l-4.7-4.7h-16.6v28l-3-3.2v-7.4l-6.3-6.3H378v-4.8l-6.3-6.3h-24V31l-2-2v-7.4l-2-2V.3h29.7l.8.8h.6v.7l7.2 7.2v3.2h.3v.7l2.2 2.2V.3zm-32 67.4h3.7v11h21.7V9.2h-6.8v44.3h-11.7v-11h-3.7v-11h-3.7V20.2H367V9.1h-14.2v69.7h10.6V45.5h11.6z"/><path fill="#000" d="M282.2 65.1v7.4l6.2 6.4h1.1v4.7l6.3 6.3h42.5V79h7.5V67.7h2V83h-5.5v11h-48.1l-7.2-7.1h-.6v-.6l-.9-.9v-3.7L280 76V63zm52.4-8.5h3.7V31.4h-3.7V20.2h-7.4V9.1h-32.8v11.1H287v11.2h-3.7v25.2h3.7v11h7.4v11.2h32.8V67.7h7.4zm14 11.1h.9V32.8l-.8-.8V18.9l1.1 1.1v7.4l3.7 3.8v40.6h-3.7v11h-1.1zm-32.3-51.5h-11v11h-3.8v33.4h3.8v11h11v-11h3.8V27.3h-3.8zm-.8 7.2V28l3.7 3.8v27.9h-3.7v11h-3V66l-3.8-3.6V34.5h3.7V23.4zm-2.8 32.4h2.5V38.5h-2.5zm33.1-34.1-6.4-6.3h-1v-4.8L332 4.3h-42.5v11h-7.3v11.2H280V11.4h5.5V.3h48.2l.9.8h.6v.7l7.1 7.2v3.2h.3v.7l5.2 5.1v13.1l-2-2zm-7.2 50h-7.4v11h-40.8v-11H283v-11h-3V27.3h3V16.2h7.4V5.1h40.8v11.1h7.4v11.2h3.7v33.2h-3.7zm-18.3-48.4h3.8v41.3h-3.8v11h-19v-11h-3.8V23.3h3.8v-11h19z"/><path fill="#000" d="M243.1 71.7h-3.7v-11h-3.7v11H232v11h-22.3v-11h-7.4V5H221v44.4h3.7v-11h3.7V27.3h18.6v11h3.6v11h3.8V5.2h18.5v66.6h-7.4v11H243zm41 0H283v-11h-3V27.3h3V16.2h1zm-4-61-6.5-6.4h-20.2V32l-5.7-5.6h-19.6V10.6l-6.3-6.3h-20.3v68.2l6.3 6.4h1v4.7l6.4 6.3h24V79h3v4.7l6.4 6.3h24V79h7.4V63l2.2 2.1v7.4l1.8 1.9v8.5h-7.5v11H247l-3.7-3.7V94h-29.6l-7.2-7.1h-.7v-.6l-.8-.9v-3.7l-6-6h-.6V75l-.8-.8V.2h26l.8.9h.6v.7l7.2 7.2v13.5h17.3V.4h25.9l.8.8h.7v.6L284 9v6.4h-1.8v11.1H280zm-36.7 57h3.7v11h14.3v-11h7.4V9h-10.5v44.4h-11.8v-11H243V31.3h-10.7v11h-3.6v11h-11.8l.1-44.3h-10.6v58.6h7.4v11H228v-11h3.7v-11h11.7zM180.6 10.6l-6.3-6.3H154v5.6l-5.6-5.6h-20.3V31l-2-2v-7.4l-2-2V.3h52l.7.8h.7v.7l7.1 7.2v73.9h-7.4v11h-37l-7.2-7.1h-.7v-.6l-.8-.9v-3.7l-5.4-5.4v-8.5h2v4.8l6.3 6.4h1v4.7l6.4 6.3h31.4V79h7.4zm-18.5 57h7.4V9.2h-10.6v66.6h-15.3V9h-10.7v58.6h7.4v11h21.8zm4 15.2h-29.8V71.7H129v-4h.9V32.8l-.9-.8V5h18.7v66.6h7.3V5h18.6v66.6H166z"/><path fill="#000" d="m58.7 61.5 3.7 3.6v7.4l6.3 6.4h1.1v4.7l6.3 6.3h42.5V79h7.5V67.7h2v4.8l2 2V83h-7.5v11H74.5l-7.2-7.1h-.6v-.6l-.9-.9v-3.7l-5.9-6h-.6V75l-.9-.8v-7.4l-2.2-2.2h-.7V64l-.8-.9V45.6h1.8v-11h2.2zm56.2-4.9h3.7V31.4H115V20.2h-7.4V9.1H74.7v11.1h-7.4v11.2h-3.8v25.2h3.8v11h7.4v11.2h32.8V67.7h7.4zM96.6 16.2h-11v11h-3.8v33.4h3.8v11h11v-11h3.7V27.3h-3.7zm33.2 16.6-.9-.8V18.9l1.2 1.1v7.4l3.7 3.8v40.5h-4.9v-4h.9zm-34-9.4V28l3.7 3.8v27.9h-3.7v11h-3.1V66L89 62.4V34.5h3.7V23.4zM93 55.8h2.5V38.5H93zM126 21.7l-6.4-6.3h-1v-4.8l-6.4-6.3H69.8v11h-7.4v11.2h-2.1V11.4h5.5V.3H114l.8.8h.7v.7l7.1 7.2v3.2h.3v.7L128 18v13.1l-2-2zm-7.2 50h-7.4v11H70.7v-11h-7.4v-11h-3.8V34.4h.8v-7.1h3V16.2h7.4V5.1h40.8v11.1h7.4v11.2h3.7v33.2H119zm-18.3-48.4h3.7v41.3h-3.7v11h-19v-11h-3.8V23.3h3.8v-11h19z"/><path fill="#000" d="M45.4 23.3H49V9H38.5v22.3h-19V9H8.8v14.2h3.8v11.1h3.6v11h7.5v33.4h10.6V45.5h7.3v-11h3.8zm14.1 11.2h.8v-7.1h3V16.2h1v22.3h-3.8v11h-1zm.8-23.9-6.4-6.3H33.7v22.2h-3.1V10.6l-6.3-6.3H4V28L7.7 32v7.4l3.7 3.7v7.3l6.3 6.3h1.2v27l6.3 6.3h20.3V56.6h7.4v-11h3.6v-11h2.2v15h-1.8v11h-7.4V94h-26l-7.1-7.1h-.7v-.6l-.8-.9V59.5l-6-6h-.7v-.7l-.8-.8v-7.4l-2.2-2.2h-.6v-.6l-.9-.9v-7.4l-2.2-2.2H.8v-.7l-.8-.8V.3h26l.8.8h.7v.7L29.7 4V.3h25.9l.8.8h.6v.6L64.3 9v6.4h-1.9v11.1h-2.1zm-11 27.8h-3.7v11h-7.3v33.4H19.7V49.5h-7.5v-11H8.6V27.2H4.8V5h18.7v22.3h11V5H53v22.2h-3.6z"/><path fill="#08c9ff" d="M410.7 60.6V4.8h22.4v55.8zm0 22.2V71.5h22.4v11.3zM389.5 5.1h14.8v77.7h-29.7V71.7h-3.7V49.5h-3.6v33.3h-18.6V5h22.2v11.1h7.5v11.2h3.7v11h3.7v11h3.7zM290.4 5.1h40.8v11.1h7.4v11.2h3.7v33.2h-3.7v11h-7.4v11.2h-40.8V71.7H283v-11h-3.7V27.3h3.7V16.2h7.4zm11.1 22.2v33.3h3.8v11h11v-11h3.8V27.3h-3.8v-11h-11v11zM254.3 5.1h18.5v66.6h-7.4v11H243v-11h-3.7v-11h-3.7v11H232v11h-22.3v-11h-7.4V5H221v44.4h3.7v-11h3.7V27.3h18.6v11h3.6v11h3.8zM154.9 5.1h18.6v66.6H166v11h-29.8v-11H129V5h18.7v66.6h7.3zM70.7 5.1h40.8v11.1h7.4v11.2h3.7v33.2H119v11h-7.4v11.2H70.7V71.7h-7.4v-11h-3.8V27.3h3.8V16.2h7.4zm11.1 22.2v33.3h3.8v11h11v-11h3.7V27.3h-3.7v-11h-11v11zM34.5 5.1H53v22.2h-3.6v11.1h-3.8v11h-7.3v33.4H19.7V49.5h-7.5v-11H8.6V27.2H4.8V5h18.7v22.3h11z"/><path fill="#bdf1ff" d="M433.1 71.5v11.3h-22.4V71.5zm-18.4 7.3h14.4v-3.3h-14.4zm18.4-74v55.8h-22.4V4.8zm-18.4 51.8h14.4V8.8h-14.4zM404.3 5.1v77.7h-29.7V71.7h-3.7V49.5h-3.6v33.3h-18.6V5h22.2v11.1h7.5v11.2h3.7v11h3.7v11h3.7V5zm-10.8 48.3h-11.7v-11h-3.7v-11h-3.7V20.2H367V9.1h-14.2v69.7h10.6V45.5h11.6v22.2h3.7v11h21.7V9.2h-6.8zM334.6 56.6h3.7V31.4h-3.7V20.2h-7.4V9.1h-32.8v11.1H287v11.2h-3.7v25.2h3.7v11h7.4v11.2h32.8V67.7h7.4zm-29.3-40.4v11h-3.8v33.4h3.8v11h11v-11h3.8V27.3h-3.8v-11zm33.3 55.5h-7.4v11h-40.8v-11H283v-11h-3.7V27.3h3.7V16.2h7.4V5.1h40.8v11.1h7.4v11.2h3.7v33.2h-3.7zm-18.3-48.4h3.8v41.3h-3.8v11h-19v-11h-3.8V23.3h3.8v-11h19zM243.1 71.7h-3.7v-11h-3.7v11H232v11h-22.3v-11h-7.4V5H221v44.4h3.7v-11h3.7V27.3h18.6v11h3.6v11h3.8V5.2h18.5v66.6h-7.4v11H243zm15.2-18.2h-11.8v-11H243V31.3h-10.7v11h-3.6v11h-11.8l.1-44.3h-10.6v58.6h7.4v11H228v-11h3.7v-11h11.7v11h3.7v11h14.3v-11h7.4V9h-10.5zM162 67.7h7.5V9h-10.6v66.6h-15.3V9h-10.7v58.6h7.4v11h21.8zm4 15h-29.7v-11H129V5h18.7v66.6h7.3V5h18.6v66.6H166zM114.9 56.6h3.7V31.4H115V20.2h-7.4V9.1H74.7v11.1h-7.4v11.2h-3.8v25.2h3.8v11h7.4v11.2h32.8V67.7h7.4zM85.6 16.2v11h-3.8v33.4h3.8v11h11v-11h3.7V27.3h-3.7v-11zm33.3 55.5h-7.4v11H70.7v-11h-7.4v-11h-3.8V27.3h3.8V16.2h7.4V5.1h40.8v11.1h7.4v11.2h3.7v33.2H119zm-18.3-48.4h3.7v41.3h-3.7v11h-19v-11h-3.8V23.3h3.8v-11h19zM45.4 23.3H49V9H38.5v22.3h-19V9H8.8v14.2h3.8v11.1h3.6v11h7.5v33.4h10.6V45.5h7.3v-11h3.8zm4 15.1h-3.8v11h-7.3v33.4H19.7V49.5h-7.5v-11H8.6V27.2H4.8V5h18.7v22.3h11V5H53v22.2h-3.6z"/></svg>