<svg width="117" height="81" viewBox="0 0 117 81" fill="none" xmlns="http://www.w3.org/2000/svg">
<g id="character-0" clip-path="url(#clip0_6553_61390)">
<g class="[state:jump-down]">
<g id="Jump-Down">
<path id="object" fill-rule="evenodd" clip-rule="evenodd" d="M75.2891 22.6799L72.5551 21.991L71.1029 27.7543L65.2443 26.278L64.5666 28.9675L66.1289 29.3612L65.7416 30.898L67.3039 31.2917L67.0135 32.4444L68.1852 32.7396L67.7979 34.2765L73.6564 35.7527L73.2692 37.2896L71.7069 36.8959L71.0292 39.5854L66.7329 38.5029L67.0234 37.3502L63.8988 36.5629L64.2861 35.026L61.5521 34.3371L61.9394 32.8002L57.6431 31.7176L57.9336 30.565L54.0279 29.5808L54.4151 28.044L45.432 25.7804L45.0448 27.3172L42.3108 26.6283L42.0203 27.781L39.2864 27.0921L38.8991 28.6289L32.65 27.0542L31.9723 29.7438L32.7534 29.9406L32.3662 31.4775L34.7096 32.068L33.2573 37.8312L34.8196 38.2249L34.5292 39.3775L36.0914 39.7712L35.7042 41.308L34.1419 40.9144L33.7546 42.4512L32.5829 42.156L32.2925 43.3086L30.3396 42.8166L29.9524 44.3534L24.4844 42.9756L24.0971 44.5125L18.2386 43.0362L17.9482 44.1889L12.4802 42.811L11.4152 47.0374L16.8832 48.4152L17.2705 46.8784L20.395 47.6657L20.2982 48.0499L23.0322 48.7388L22.7417 49.8915L24.304 50.2851L23.9167 51.822L27.8224 52.8062L27.532 53.9588L33.3905 55.4351L33.681 54.2824L36.4149 54.9713L36.8022 53.4345L39.9268 54.2218L40.314 52.685L41.8763 53.0786L42.1667 51.926L43.729 52.3196L44.1163 50.7828L45.288 51.078L45.9657 48.3885L47.528 48.7822L48.2057 46.0927L50.9397 46.7816L50.6492 47.9342L53.3832 48.6231L52.9959 50.16L56.1205 50.9473L55.7332 52.4842L69.7937 56.0272L69.5033 57.1799L76.9241 59.0498L76.5368 60.5866L85.1293 62.7518L84.7421 64.2887L87.476 64.9776L87.1856 66.1302L94.6064 68.0002L94.8969 66.8475L96.0686 67.1428L96.8431 64.069L86.6883 61.5102L87.0756 59.9733L84.3416 59.2844L84.632 58.1318L81.898 57.4429L82.1885 56.2902L80.6262 55.8965L80.9167 54.7439L78.1827 54.055L78.6668 52.1339L75.5422 51.3466L75.8327 50.1939L74.2704 49.8002L74.7545 47.8792L76.3167 48.2728L76.6072 47.1202L81.294 48.3012L81.6813 46.7643L84.4153 47.4532L84.8025 45.9164L87.5365 46.6053L87.8269 45.4526L89.3892 45.8463L90.4542 41.6199L88.8919 41.2263L89.2792 39.6894L87.7169 39.2957L88.1042 37.7589L86.9325 37.4636L87.2229 36.311L85.6606 35.9173L86.0479 34.3804L84.8762 34.0852L85.1666 32.9325L83.2138 32.4405L83.6011 30.9036L80.8671 30.2147L81.2543 28.6778L78.5204 27.9889L78.9076 26.452L77.7359 26.1568L78.1232 24.6199L74.9986 23.8326L75.2891 22.6799ZM71.1029 27.7543L70.7156 29.2911L73.4496 29.98L73.8368 28.4432L71.1029 27.7543Z" fill="white"></path>
</g>
</g>
<g class="[state:jump-up]">
<g id="Jump-Up">
<path id="object_2" fill-rule="evenodd" clip-rule="evenodd" d="M64.6869 5.10813L60.1036 6.43038L61.4291 11.025L62.9569 10.5842L63.3987 12.1157L58.8154 13.438L58.3736 11.9064L55.3181 12.7879L56.2018 15.851L57.3476 15.5204L58.2312 18.5835L60.1409 18.0325L60.5828 19.5641L65.166 18.2418L65.6079 19.7734L67.1356 19.3326L67.5775 20.8641L66.0497 21.3049L66.9334 24.3679L63.8779 25.2494L63.436 23.7179L59.9986 24.7096L59.5567 23.1781L58.029 23.6188L57.5872 22.0873L54.5316 22.9688L54.0898 21.4373L47.9788 23.2002L47.5369 21.6687L35.3149 25.1947L35.7567 26.7262L32.7012 27.6077L33.1431 29.1392L30.0875 30.0207L30.4189 31.1694L28.8912 31.6101L28.5598 30.4615L25.1223 31.4532L26.4478 36.0477L28.3575 35.4968L30.5667 43.1544L32.0945 42.7137L32.5363 44.2452L34.0641 43.8045L34.5059 45.336L36.0336 44.8952L36.5859 46.8097L38.1137 46.3689L38.5555 47.9004L41.611 47.0189L42.9365 51.6135L41.4088 52.0543L41.8506 53.5858L40.3229 54.0265L40.7647 55.5581L37.7092 56.4396L38.151 57.9711L35.0955 58.8526L35.5373 60.3841L32.4818 61.2656L34.2492 67.3917L35.7769 66.9509L36.2188 68.4825L40.4201 67.2704L39.6469 64.5902L38.5011 64.9208L37.9488 63.0064L51.6986 59.0397L51.2567 57.5081L54.3123 56.6267L53.8704 55.0951L55.3982 54.6544L54.9563 53.1229L56.4841 52.6821L55.6004 49.6191L57.1282 49.1783L54.919 41.5207L53.3913 41.9614L52.0658 37.3669L50.538 37.8076L49.6543 34.7445L48.1266 35.1853L47.5743 33.2709L49.102 32.8301L49.5439 34.3617L51.0716 33.9209L51.9553 36.984L53.483 36.5432L54.4772 39.9892L56.0049 39.5484L57.3304 44.143L60.7679 43.1513L61.2097 44.6828L74.9595 40.7161L75.4014 42.2476L76.9291 41.8069L77.371 43.3384L81.9542 42.0162L82.3961 43.5477L80.8683 43.9884L81.3101 45.52L79.7824 45.9607L81.1079 50.5553L84.1634 49.6738L83.7216 48.1423L85.2493 47.7015L84.8075 46.17L87.863 45.2885L87.4212 43.757L88.9489 43.3162L88.0653 40.2532L86.5375 40.6939L85.6538 37.6309L82.5983 38.5124L82.1565 36.9808L80.6287 37.4216L79.7451 34.3585L76.6895 35.24L76.2477 33.7085L77.7755 33.2678L76.7813 29.8218L78.3091 29.3811L77.8673 27.8496L82.4505 26.5273L82.0087 24.9958L85.0642 24.1143L84.6224 22.5828L86.1501 22.142L85.7083 20.6105L87.236 20.1697L85.4687 14.0436L83.9409 14.4844L83.4991 12.9529L81.9714 13.3936L81.5295 11.8621L78.474 12.7436L78.0322 11.2121L76.5044 11.6528L76.0626 10.1213L74.9168 10.4518L74.4749 8.92031L72.5652 9.47125L72.1234 7.93972L69.0679 8.82122L68.6261 7.28969L67.0983 7.73044L66.6565 6.19891L65.1287 6.63966L64.6869 5.10813Z" fill="white"></path>
</g>
</g>
<g class="[state:ani-sprite][sprite:150]">
<g id="Run-6">
<path id="object_3" fill-rule="evenodd" clip-rule="evenodd" d="M72.5093 24H67.7391V28.782H69.3292V30.3759H64.559V28.782H61.3789V31.9699H62.5714V35.1579H64.559V36.7519H69.3292V38.3459H70.9193V39.9398H69.3292V43.1278H66.1491V41.5338H62.5714V39.9398H60.9814V38.3459H57.8012V36.7519H51.441V35.1579H38.7205V36.7519H35.5404V38.3459H32.3602V39.5414H30.7702V38.3459H27.1925V43.1278H29.1801V51.0977H30.7702V52.6917H32.3602V54.2857H33.9503V56.2782H35.5404V57.8722H38.7205V62.6541H37.1304V64.2481H35.5404V65.8421H32.3602V67.4361H29.1801V69.0301H26V75.406H27.5901V77H31.9627V74.2105H30.7702V72.218H45.0807V70.6241H48.2609V69.0301H49.8509V67.4361H51.441V64.2481H53.0311V56.2782H51.441V51.4962H49.8509V48.3083H48.2609V46.3158H49.8509V47.9098H51.441V51.0977H53.0311V54.6842H54.6211V59.4662H58.1988V61.0602H72.5093V62.6541H74.0994V64.2481H78.8696V65.8421H77.2795V67.4361H75.6894V72.218H78.8696V70.6241H80.4596V69.0301H83.6398V67.4361H85.2298V64.2481H83.6398V61.0602H80.4596V59.4662H78.8696V56.2782H75.6894V54.6842H77.2795V51.0977H78.8696V49.5038H83.6398V47.9098H86.8199V46.3158H88.4099V44.7218H90V38.3459H88.4099V36.7519H86.8199V35.1579H83.6398V33.5639H82.0497V31.9699H80.8571V30.3759H78.8696V28.782H75.6894V27.188H74.0994V25.594H72.5093V24Z" fill="white"></path>
</g>
<g id="Run-5">
<path id="object_4" fill-rule="evenodd" clip-rule="evenodd" d="M70.2878 24H68.2734V31.1729H69.482V32.3684H67.8705V31.5714H65.8561V29.9774H64.6475V28.782H62.2302V34.7594H63.4388V35.9549H64.6475V37.1504H65.8561V38.3459H67.0647V39.5414H67.8705V41.9323H67.0647V45.1203H63.4388V44.3233H62.2302V42.7293H59.8129V41.5338H58.6043V40.3383H56.187V39.5414H53.7698V38.3459H50.5468V37.1504H40.8777V38.3459H38.4604V39.5414H36.0432V40.7368H34.8345V41.9323H33.6259V40.7368H31.2086V41.9323H30V45.5188H31.2086V46.7143H32.4173V47.5113H31.2086V51.0977H32.4173V54.6842H33.6259V57.0752H34.8345V58.2707H36.0432V59.4662H37.2518V60.6617H39.6691V61.8571H50.5468V63.0526H52.5612V63.8496H53.7698V65.0451H56.187V66.2406H57.3957V67.4361H58.6043V68.6316H62.2302V69.8271H67.8705V71.0226H70.6906V68.6316H69.482V67.4361H68.2734V66.2406H67.0647V65.0451H62.2302V66.2406H61.0216V61.8571H62.2302V59.4662H61.0216V55.8797H59.8129V53.4887H58.6043V52.2932H57.3957V51.0977H54.9784V49.9023H53.7698V48.7068H50.5468V47.5113H42.0863V46.7143H53.7698V47.9098H56.187V48.7068H58.6043V49.9023H59.8129V51.0977H61.0216V53.4887H62.2302V57.0752H63.4388V62.6541H62.2302V63.8496H65.8561V63.0526H67.8705V61.8571H70.6906V60.6617H71.4964V58.2707H72.705V55.8797H73.9137V53.0902H76.3309V52.2932H78.7482V51.0977H81.1655V49.9023H83.5827V48.7068H84.7914V46.7143H86V41.9323H84.7914V40.7368H83.5827V39.5414H82.3741V38.3459H81.1655V37.1504H79.9568V35.9549H78.7482V34.7594H77.5396V32.7669H76.3309V31.5714H75.1223V30.3759H73.9137V29.1805H72.705V26.7895H71.4964V25.594H70.2878V24ZM51.7554 71.0226V69.8271H54.1727V67.4361H51.7554V66.2406H49.3381V67.4361H48.1295V68.6316H44.5036V69.8271H43.295V71.0226H42.0863V72.218H40.8777V77H42.0863V75.8045H43.295V74.609H45.7122V73.4135H46.9209V72.218H49.3381V71.0226H51.7554Z" fill="white"></path>
</g>
<g id="Run-4">
<path id="object_5" fill-rule="evenodd" clip-rule="evenodd" d="M72.5093 24H67.7391V28.782H69.3292V30.3759H64.559V28.782H61.3789V31.9699H62.5714V35.1579H64.559V36.7519H69.3292V38.3459H70.9193V39.9398H69.3292V43.1278H66.1491V41.5338H62.5714V39.9398H60.9814V38.3459H57.8012V36.7519H51.441V35.1579H38.7205V36.7519H35.5404V38.3459H32.3602V39.5414H30.7702V38.3459H27.1925V43.1278H29.1801V51.0977H30.7702V52.6917H32.3602V54.2857H33.9503V56.2782H35.5404V57.8722H38.7205V62.6541H37.1304V64.2481H35.5404V65.8421H32.3602V67.4361H29.1801V69.0301H26V75.406H27.5901V77H31.9627V74.2105H30.7702V72.218H45.0807V70.6241H48.2609V69.0301H49.8509V67.4361H51.441V64.2481H53.0311V56.2782H51.441V51.4962H49.8509V48.3083H48.2609V46.3158H49.8509V47.9098H51.441V51.0977H53.0311V54.6842H54.6211V59.4662H58.1988V61.0602H72.5093V62.6541H74.0994V64.2481H78.8696V65.8421H77.2795V67.4361H75.6894V72.218H78.8696V70.6241H80.4596V69.0301H83.6398V67.4361H85.2298V64.2481H83.6398V61.0602H80.4596V59.4662H78.8696V56.2782H75.6894V54.6842H77.2795V51.0977H78.8696V49.5038H83.6398V47.9098H86.8199V46.3158H88.4099V44.7218H90V38.3459H88.4099V36.7519H86.8199V35.1579H83.6398V33.5639H82.0497V31.9699H80.8571V30.3759H78.8696V28.782H75.6894V27.188H74.0994V25.594H72.5093V24Z" fill="white"></path>
</g>
<g id="Run-3">
<path id="object_6" fill-rule="evenodd" clip-rule="evenodd" d="M70.9861 22H68.1667V27.9434H62.125V30.717H63.7361V32.3019H65.3472V33.4906H66.5556V35.0755H72.5972V36.6604H70.9861V39.434H66.5556V38.2453H63.3333V36.6604H60.5139V35.0755H56.0833V33.8868H52.0556V32.3019H42.7917V33.8868H39.9722V35.0755H37.1528V36.6604H30.7083V39.434H31.5139V41.0189H33.9306V46.9623H35.5417V48.1509H37.1528V49.7358H35.5417V51.3208H34.3333V52.5094H32.3194V54.0943H26.6806V55.6792H20.6389V56.8679H15V61.2264H20.6389V59.6415H23.8611V60.0377H26.6806V61.2264H28.2917V62.8113H32.3194V64H38.3611V62.8113H41.1806V61.2264H44.4028V59.6415H46.0139V58.4528H47.625V56.8679H48.8333V54.0943H50.4444V51.3208H53.2639V52.5094H56.0833V54.0943H59.3056V55.6792H73.8056V56.8679H81.4583V58.4528H90.3194V60.0377H93.1389V61.2264H100.792V60.0377H102V56.8679H91.5278V55.283H88.7083V54.0943H85.8889V52.9057H84.2778V51.717H81.4583V49.7358H78.2361V48.5472H76.625V46.566H78.2361V45.3774H83.0694V43.7925H85.8889V42.2075H88.7083V41.0189H90.3194V36.6604H88.7083V35.0755H87.0972V33.4906H85.8889V32.3019H84.2778V30.717H83.0694V29.5283H81.0556V27.9434H78.2361V26.3585H75.4167V24.7736H74.2083V23.1887H70.9861V22ZM68.1667 27.9434V29.5283H70.9861V27.9434H68.1667Z" fill="white"></path>
</g>
<g id="Run-2">
<path id="object_7" fill-rule="evenodd" clip-rule="evenodd" d="M72.5093 21H67.7391V25.782H69.3292V27.3759H64.559V25.782H61.3789V28.9699H62.5714V32.1579H64.559V33.7519H69.3292V35.3459H70.9193V36.9398H69.3292V40.1278H66.1491V38.5338H62.5714V36.9398H60.9814V35.3459H57.8012V33.7519H51.441V32.1579H38.7205V33.7519H35.5404V35.3459H32.3602V36.5414H30.7702V35.3459H27.1925V40.1278H29.1801V48.0977H30.7702V49.6917H32.3602V51.2857H33.9503V53.2782H35.5404V54.8722H38.7205V59.6541H37.1304V61.2481H35.5404V62.8421H32.3602V64.4361H29.1801V66.0301H26V72.406H27.5901V74H31.9627V71.2105H30.7702V69.218H45.0807V67.6241H48.2609V66.0301H49.8509V64.4361H51.441V61.2481H53.0311V53.2782H51.441V48.4962H49.8509V45.3083H48.2609V43.3158H49.8509V44.9098H51.441V48.0977H53.0311V51.6842H54.6211V56.4662H58.1988V58.0602H72.5093V59.6541H74.0994V61.2481H78.8696V62.8421H77.2795V64.4361H75.6894V69.218H78.8696V67.6241H80.4596V66.0301H83.6398V64.4361H85.2298V61.2481H83.6398V58.0602H80.4596V56.4662H78.8696V53.2782H75.6894V51.6842H77.2795V48.0977H78.8696V46.5038H83.6398V44.9098H86.8199V43.3158H88.4099V41.7218H90V35.3459H88.4099V33.7519H86.8199V32.1579H83.6398V30.5639H82.0497V28.9699H80.8571V27.3759H78.8696V25.782H75.6894V24.188H74.0994V22.594H72.5093V21Z" fill="white"></path>
</g>
<g id="Run-1">
<path id="object_8" fill-rule="evenodd" clip-rule="evenodd" d="M70.2878 28H68.2734V35.1729H69.482V36.3684H67.8705V35.5714H65.8561V33.9774H64.6475V32.782H62.2302V38.7594H63.4388V39.9549H64.6475V41.1504H65.8561V42.3459H67.0647V43.5414H67.8705V45.9323H67.0647V49.1203H63.4388V48.3233H62.2302V46.7293H59.8129V45.5338H58.6043V44.3383H56.187V43.5414H53.7698V42.3459H50.5468V41.1504H40.8777V42.3459H38.4604V43.5414H36.0432V44.7368H34.8345V45.9323H33.6259V44.7368H31.2086V45.9323H30V49.5188H31.2086V50.7143H32.4173V51.5113H31.2086V55.0977H32.4173V58.6842H33.6259V61.0752H34.8345V62.2707H36.0432V63.4662H37.2518V64.6617H39.6691V65.8571H50.5468V67.0526H52.5612V67.8496H53.7698V69.0451H56.187V70.2406H57.3957V71.4361H58.6043V72.6316H62.2302V73.8271H67.8705V75.0226H70.6906V72.6316H69.482V71.4361H68.2734V70.2406H67.0647V69.0451H62.2302V70.2406H61.0216V65.8571H62.2302V63.4662H61.0216V59.8797H59.8129V57.4887H58.6043V56.2932H57.3957V55.0977H54.9784V53.9023H53.7698V52.7068H50.5468V51.5113H42.0863V50.7143H53.7698V51.9098H56.187V52.7068H58.6043V53.9023H59.8129V55.0977H61.0216V57.4887H62.2302V61.0752H63.4388V66.6541H62.2302V67.8496H65.8561V67.0526H67.8705V65.8571H70.6906V64.6617H71.4964V62.2707H72.705V59.8797H73.9137V57.0902H76.3309V56.2932H78.7482V55.0977H81.1655V53.9023H83.5827V52.7068H84.7914V50.7143H86V45.9323H84.7914V44.7368H83.5827V43.5414H82.3741V42.3459H81.1655V41.1504H79.9568V39.9549H78.7482V38.7594H77.5396V36.7669H76.3309V35.5714H75.1223V34.3759H73.9137V33.1805H72.705V30.7895H71.4964V29.594H70.2878V28ZM51.7554 75.0226V73.8271H54.1727V71.4361H51.7554V70.2406H49.3381V71.4361H48.1295V72.6316H44.5036V73.8271H43.295V75.0226H42.0863V76.218H40.8777V81H42.0863V79.8045H43.295V78.609H45.7122V77.4135H46.9209V76.218H49.3381V75.0226H51.7554Z" fill="white"></path>
</g>
</g>
<g class="[state:move-none]">
<g id="Rest">
<path id="object_9" fill-rule="evenodd" clip-rule="evenodd" d="M70.2878 28H68.2734V35.1729H69.482V36.3684H67.8705V35.5714H65.8561V33.9774H64.6475V32.782H62.2302V38.7594H63.4388V39.9549H64.6475V41.1504H65.8561V42.3459H67.0647V43.5414H67.8705V45.9323H67.0647V49.1203H63.4388V48.3233H62.2302V46.7293H59.8129V45.5338H58.6043V44.3383H56.187V43.5414H53.7698V42.3459H50.5468V41.1504H40.8777V42.3459H38.4604V43.5414H36.0432V44.7368H34.8345V45.9323H33.6259V44.7368H31.2086V45.9323H30V49.5188H31.2086V50.7143H32.4173V51.5113H31.2086V55.0977H32.4173V58.6842H33.6259V61.0752H34.8345V62.2707H36.0432V63.4662H37.2518V64.6617H39.6691V65.8571H50.5468V67.0526H52.5612V67.8496H53.7698V69.0451H56.187V70.2406H57.3957V71.4361H58.6043V72.6316H62.2302V73.8271H67.8705V75.0226H70.6906V72.6316H69.482V71.4361H68.2734V70.2406H67.0647V69.0451H62.2302V70.2406H61.0216V65.8571H62.2302V63.4662H61.0216V59.8797H59.8129V57.4887H58.6043V56.2932H57.3957V55.0977H54.9784V53.9023H53.7698V52.7068H50.5468V51.5113H42.0863V50.7143H53.7698V51.9098H56.187V52.7068H58.6043V53.9023H59.8129V55.0977H61.0216V57.4887H62.2302V61.0752H63.4388V66.6541H62.2302V67.8496H65.8561V67.0526H67.8705V65.8571H70.6906V64.6617H71.4964V62.2707H72.705V59.8797H73.9137V57.0902H76.3309V56.2932H78.7482V55.0977H81.1655V53.9023H83.5827V52.7068H84.7914V50.7143H86V45.9323H84.7914V44.7368H83.5827V43.5414H82.3741V42.3459H81.1655V41.1504H79.9568V39.9549H78.7482V38.7594H77.5396V36.7669H76.3309V35.5714H75.1223V34.3759H73.9137V33.1805H72.705V30.7895H71.4964V29.594H70.2878V28ZM51.7554 75.0226V73.8271H54.1727V71.4361H51.7554V70.2406H49.3381V71.4361H48.1295V72.6316H44.5036V73.8271H43.295V75.0226H42.0863V76.218H40.8777V81H42.0863V79.8045H43.295V78.609H45.7122V77.4135H46.9209V76.218H49.3381V75.0226H51.7554Z" fill="white"></path>
</g>
</g>
<g class="[state:roster]">
<g id="Larry-Roster">
<path id="object_10" fill-rule="evenodd" clip-rule="evenodd" d="M70.2878 18H68.2734V25.1729H69.482V26.3684H67.8705V25.5714H65.8561V23.9774H64.6475V22.782H62.2302V28.7594H63.4388V29.9549H64.6475V31.1504H65.8561V32.3459H67.0647V33.5414H67.8705V35.9323H67.0647V39.1203H63.4388V38.3233H62.2302V36.7293H59.8129V35.5338H58.6043V34.3383H56.187V33.5414H53.7698V32.3459H50.5468V31.1504H40.8777V32.3459H38.4604V33.5414H36.0432V34.7368H34.8345V35.9323H33.6259V34.7368H31.2086V35.9323H30V39.5188H31.2086V40.7143H32.4173V41.5113H31.2086V45.0977H32.4173V48.6842H33.6259V51.0752H34.8345V52.2707H36.0432V53.4662H37.2518V54.6617H39.6691V55.8571H50.5468V57.0526H52.5612V57.8496H53.7698V59.0451H56.187V60.2406H57.3957V61.4361H58.6043V62.6316H62.2302V63.8271H67.8705V65.0226H70.6906V62.6316H69.482V61.4361H68.2734V60.2406H67.0647V59.0451H62.2302V60.2406H61.0216V55.8571H62.2302V53.4662H61.0216V49.8797H59.8129V47.4887H58.6043V46.2932H57.3957V45.0977H54.9784V43.9023H53.7698V42.7068H50.5468V41.5113H42.0863V40.7143H53.7698V41.9098H56.187V42.7068H58.6043V43.9023H59.8129V45.0977H61.0216V47.4887H62.2302V51.0752H63.4388V56.6541H62.2302V57.8496H65.8561V57.0526H67.8705V55.8571H70.6906V54.6617H71.4964V52.2707H72.705V49.8797H73.9137V47.0902H76.3309V46.2932H78.7482V45.0977H81.1655V43.9023H83.5827V42.7068H84.7914V40.7143H86V35.9323H84.7914V34.7368H83.5827V33.5414H82.3741V32.3459H81.1655V31.1504H79.9568V29.9549H78.7482V28.7594H77.5396V26.7669H76.3309V25.5714H75.1223V24.3759H73.9137V23.1805H72.705V20.7895H71.4964V19.594H70.2878V18ZM51.7554 65.0226V63.8271H54.1727V61.4361H51.7554V60.2406H49.3381V61.4361H48.1295V62.6316H44.5036V63.8271H43.295V65.0226H42.0863V66.218H40.8777V71H42.0863V69.8045H43.295V68.609H45.7122V67.4135H46.9209V66.218H49.3381V65.0226H51.7554Z" fill="white"></path>
</g>
</g>
</g>
<defs>
<clipPath id="clip0_6553_61390">
<rect width="117" height="81" fill="white"></rect>
</clipPath>
</defs>
</svg>