<svg xmlns="http://www.w3.org/2000/svg" width="1440" height="810" fill="none" viewBox="0 0 1440 810"><g clip-path="url(#a)"><path fill="#002547" d="M0 0h1440v810H0z"/><path fill="#000" fill-opacity=".3" fill-rule="evenodd" d="M272.5 183.4h9.3V179h9.4l.1 4.4h8.5c.3 0 1-1 1-1.3l-.2-3 13.6-.1.2 3.6 1.1.8h16.8c1 0 1 2.2.8 4.2l4.5.3v316l5 .2V458h9.3v-28.1h8.8v-31.4c0-.4 0-1.2.3-1.2h9.1v-18.7h9.4v-18.2h9.4v18.2h9.4v18.4c0 .2.7.3 1.1.3h8.2v32.5h9.4V458h9.4V509h4.4V406.5h18.8v-83.8h13.7v-4.4h5v-9.3h4.4v-5h4.4v-4.4h5v-5h4.4v-4.4h5V281l4.4-.3v-21.9c0-.5 1-1 1.2-1h8.1v4.4h4.5v5h-8.8v13.7h4.4v9.4h4.4v9.4h5v9.3h4.3v4.4h5.1v5.2h6.2v4.2h16.9v37.5h4.4v-5h5V351h9.4v-5h4.3l.2-4.3h121.1l.2 4.3h4.3v5H710v-74.3h9.4v9.3h32.5v-14.3l5-.1v-27.4l4.4-.1v-28.1h18.7v4.4h4.5v9.4h-13.8V244h4.4v27.5h5V286h32.5v-9.4l9.4.1v278.5H833V370h9c.3 0 .4.9.4 1.1l-.1 7.2 1 1.2 4-.1.1-9.4h4.3v-54.9c0-.4.8-1.2 1-1.2h16.6c.4 0 1.1.1 1.1.4v4.3c.1.9 4.4-.2 4.4.6v9h-18v9.4h4.3v32.4h4.4v9.4l5-.1v-8.5c0-.3 1-1 1-.9l8.3.1v46.1H926V407h13.8l-.2 4 1.1 1.1 4-.2.2-5h9.2v9.4l4.4.2v161.4c0 .3.7.5 1.2.7l3.8-.7v-194h13.7V372c0-.5-.1-1.7.3-1.8h3.7c.4 0 .4-1.2.4-1.8v-7.5h9.3v-60.4h9.4v28h5v4.3h4.3v28h9.4v4.4h4.4v5h5v12c0 .5-.2 1.7.3 1.7h1.6c.6 0 2.3.2 2.4-.3v-9.1h116v167h37.4v-13.6h23v-83.5h18.5c.2 0 .3.7.3 1.3v82.2h9.4v-83.5h18v83.4h9.4v13.7l4.3.2.7-1.4V439.4h3.5l1-1.2-.2-8.3 4.2.2 1-1.2-.2-10.2c0-.7-.2-2.4.4-2.4h2.8c.3 0 1.3-.4 1.3-.7V412l4.3-.1v-37.3h5v-27l1-1.1h12.7v8.4l-1 1h-8.4v18.7h5v37.3h4.4v4.4h5V430h4.3v9.3l4.4.2v88.3h5v9.4l8.3-.1 1.2 1-.1 3.1c0 1 4.3-.2 4.3.7v1.6c0 .6-.2 2.4.3 2.4h22.8v-74l5-.2v-4.3h9.3v-5h9.4v-18h9.3v18h8.8v4.4c0 .2 1 .6 1.2.6h7q.8 0 1 .3l.3 4 4.8.1v41.7h26.9V810H-2l.5-455 4.3.4V374h8c.3 0 .8 1 .8 1.3v100.9c1.4.4 3.5.4 5 0v-77.8c.1-.5.7-1.3.8-1.4l8.5.2v-88l4.5-.4V304H49v5h4.4v4.3H91v5h23.2v60h65V189.2l.8-1.4h4.3v-4.3h12.6l1.3-.8-.3-3.5 8.4-.2c.4 0 1.2.6 1.2 1l-.1 1.6c0 .6 0 1.8.3 1.8l1.6.1 1.7.2 1-1.3c-.1-1-.6-3.2.1-3.2h2.7l6.3-.1.2 4.4h8.3l1-1 .2-3.4h9.1v4.4h4.4V179h7.6c.6 0 1.8 0 1.8.4v2.1c0 .7-.1 1.8.3 1.9h1.6l3.1-.3V174h13.8zm-73.8 274h11.7V456h-1.3v-1.3h-1.3v-2.6h-1.3v-1.3h-1.3v-1.3h-1.3v-1.4h-1.3V447h-1.3v-1.3H200v-1.3h-1.3zm30.2 0h11.8V456h-1.4v-1.3H238v-2.6h-1.3v-1.3h-1.3v-1.3h-1.3v-1.4h-1.3V447h-1.3v-1.3h-1.3v-1.3h-1.3zm30.2 0H271V456h-1.3v-1.3h-1.4v-2.6H267v-1.3h-1.3v-1.3h-1.3v-1.4H263V447h-1.3v-1.3h-1.3v-1.3h-1.3zm30.2 0h11.8V456h-1.3v-1.3h-1.3v-2.6h-1.3v-1.3h-1.3v-1.3h-1.4v-1.4h-1.3V447H292v-1.3h-1.3v-1.3h-1.3zm30.3 0h11.7V456H330v-1.3h-1.3v-2.6h-1.3v-1.3H326v-1.3h-1.3v-1.4h-1.3V447H322v-1.3h-1.3v-1.3h-1.2zm-124.4-11.8H194v1.3h-1.3v1.4h-1.3v1.3H190v1.3h-1.3v1.3h-1.3v2.6H186v1.3h-1.3v1.3h11.7v-13h-1.3zm30.3 0H224v1.3h-1.3v1.4h-1.3v1.3h-1.3v1.3H219v1.3h-1.3v2.6h-1.3v1.3H215v1.3h11.7v-13h-1.2zm30.2 0h-1.3v1.3H253v1.4h-1.3v1.3h-1.4v1.3h-1.3v1.3h-1.3v2.6h-1.3v1.3h-1.3v1.3H257v-13h-1.2zm30.2 0h-1.3v1.3h-1.3v1.4H282v1.3h-1.3v1.3h-1.3v1.3H278v2.6h-1.3v1.3h-1.3v1.3h11.8v-13h-1.3zm30.2 0h-1.3v1.3h-1.3v1.4h-1.3v1.3h-1.3v1.3h-1.3v1.3h-1.3v2.6H307v1.3h-1.4v1.3h11.8v-13H316zm-117.4-3.9h1.3v1.3h1.3v1.3h1.3v1.3h1.3v1.3h1.3v1.4h1.3v1.3h1.3v1.3h1.3v2.6h1.3v1.3h1.4v-14.4h-13.1zm30.2 0h1.3v1.3h1.3v1.3h1.3v1.3h1.3v1.3h1.3v1.4h1.3v1.3h1.3v1.3h1.3v2.6h1.4v1.3h1.3v-14.4h-13zm30.2 0h1.3v1.3h1.3v1.3h1.3v1.3h1.3v1.3h1.3v1.4h1.3v1.3h1.4v1.3h1.3v2.6h1.3v1.3h1.3v-14.4h-13zm30.3 0h1.2v1.3h1.3v1.3h1.3v1.3h1.4v1.3h1.3v1.4h1.3v1.3h1.3v1.3h1.3v2.6h1.3v1.3h1.3v-14.4h-13zm30.2 0h1.2v1.3h1.4v1.3h1.3v1.3h1.3v1.3h1.3v1.4h1.3v1.3h1.3v1.3h1.3v2.6h1.3v1.3h1.3v-14.4h-13zm-136.1 13h1.3v-1.2h1.3v-2.6h1.3v-1.3h1.3v-1.4h1.3V447h1.3v-1.3h1.3v-1.3h1.3V443h1.3v-1.3h1.3v-1.3h-13zm30.2 0h1.3v-1.2h1.3v-2.6h1.3v-1.3h1.3v-1.4h1.3V447h1.3v-1.3h1.3v-1.3h1.4V443h1.3v-1.3h1.2v-1.3h-13zm30.2 0h1.3v-1.2h1.3v-2.6h1.3v-1.3h1.3v-1.4h1.4V447h1.3v-1.3h1.3v-1.3h1.3V443h1.3v-1.3h1.3v-1.3h-13zm30.2 0h1.3v-1.2h1.3v-2.6h1.4v-1.3h1.3v-1.4h1.3V447h1.3v-1.3h1.3v-1.3h1.3V443h1.3v-1.3h1.3v-1.3h-13zm30.3 0h1.3v-1.2h1.3v-2.6h1.3v-1.3h1.3v-1.4h1.3V447h1.3v-1.3h1.3v-1.3h1.3V443h1.3v-1.3h1.3v-1.3h-13zM195.2 204.5H194v1.3h-1.3v1.3h-1.3v1.3H190v1.3h-1.3v1.3h-1.3v2.6H186v1.3h-1.3v1.3h11.7v-13h-1.3zm121 0h-1.4v1.3h-1.3v1.3h-1.3v1.3h-1.3v1.3h-1.3v1.3h-1.3v2.6h-1.4v1.3h-1.3v1.3h11.8v-13H316zM198.6 216h11.7v-1.3h-1.3v-1.3h-1.3v-2.6h-1.3v-1.3h-1.3v-1.3h-1.3V207h-1.3v-1.3h-1.3v-1.3h-1.4V203h-1.2zm120.9 0h11.7v-1.3H330v-1.3h-1.3v-2.6h-1.3v-1.3H326v-1.3h-1.3V207h-1.3v-1.3H322v-1.3h-1.3V203h-1.2zm-105.6-17v16.8h88.3V199zm-15.3 1.3h1.3v1.4h1.3v1.3h1.3v1.3h1.3v1.3h1.3v1.3h1.3v1.3h1.3v1.3h1.3v2.6h1.3v1.3h1.4v-14.4h-13.1zm120.9 0h1.2v1.4h1.4v1.3h1.3v1.3h1.3v1.3h1.3v1.3h1.3v1.3h1.3v1.3h1.3v2.6h1.3v1.3h1.3v-14.4h-13zm-136.1 13h1.3v-1.2h1.3v-2.6h1.3v-1.3h1.3V207h1.3v-1.3h1.3v-1.3h1.3V203h1.3v-1.4h1.3v-1.3h1.3v-1.3h-13zm120.9 0h1.3v-1.2h1.3v-2.6h1.3v-1.3h1.3V207h1.3v-1.3h1.3v-1.3h1.3V203h1.3v-1.4h1.3v-1.3h1.3v-1.3h-13z" clip-rule="evenodd"/><path fill="#000" fill-opacity=".3" d="M241.2 205.6v.7h.7v4.6h-.7v.8h-.7v.7h-7.7V201h-.7v-.7h8.3v.7h.8v.8h.7v2.3h-.7v.7h-.7v.8zm-3.8 1.5h-.8v-1.5h.8v-.8h1.5V201h-3v10h3.8v-4h-.8v-.7h-1.5zM270.8 214h-.7v-.8h-.8v-.8h-.8v-2.3h-.7v-.7h-.8v-1.5h-.8v-.8h-1.4v-1.5h.7v-.8h1.5v-3h-.8v-.8h-3v11.4H261V201h-.7v-.7h8.3v.7h.8v.8h.8v2.3h-.8v.7h-.8v.8h-.7v.7h.7v.8h.8v1.5h.8v2.3h.7v1.5h1.6v1.5h1.4v.8h-3zM283 208.6h-.8v1.5h-.8v.8H280v.8h-1.6v.7h-4.6V201h-1.4v-.7h7.6v.7h1.4v1.6h.8v.7h.8v.8h.7v3.8h-.7zm-1.6-3.8h-.7v-.7h-.7v-1.5h-.8v-.8h-.8v-.8h-2.3v10h2.3v-.9h1.6v-1.5h.7v-1.5h.7zM246.5 208.6v.8h-.7v1.5h-.8v1.5h-2.3v-1.5h.8v-1.5h.7v-1.5h.8v-1.6h.8v-2.2h.7v-1.5h.8V201h.8v-.7h1.4v2.3h.8v.7h.8v1.5h.7v2.3h.8v1.5h.8v2.3h.7v1.5h-2.3v-1.5h-.7v-1.5h-.8v-.8zm3-1.5v-1.5h-.7v-1.5h-.7v.7h-.8v2.3zM257.9 212.4h-2.3v-12.1h2.3z"/><path fill="#bfbfbf" d="M1442 743v28H-6v-28z"/><path fill="#7f7f7f" d="M1443 772v8H-3v-8z"/><path fill="#2c2c2c" fill-rule="evenodd" d="M1391 768h6.8v2h54.2v3h-60.4v7h52.4v31L-7 812.7V780h-14.6v-7H-40v-3h275.4v-2h14.3v2h272.7v-2h14.3v2h272.7v-2h14.3v2h272.7v-2h14.4v2h272.6v-2zM-13.4 780h248.8v-7H-13.4zm257 0h278.8v-7H243.6zm287 0h278.8v-7H530.6zm287 0h278.8v-7H817.6zm287 0h278.8v-7h-278.8z" clip-rule="evenodd"/><path fill="#2c2c2c" d="M792 770h-3v-1h3zM797 766h-1v2h3v1h-7v-1h3v-3h1v-2h1z"/><path fill="#2c2c2c" d="M1285 741h177v3l-24 9.6v2.5h-5.4v2.4h-7.9v2.5h-6.7v2.5h-6.7v2.5h-6v2h-13.7v-2h6.4v-2.5h6.6V761h6.7v-2.5h6.7v-2.4h6.4v-3h8.2v-2h5.5v-2.5l13.4-4.6H1262v2h-1v-2h-83.2v2h-6.7v2.6h-6.6v2.5h-6.7v2.5h-6.7v2.5h-5.5v2.4h-7.9v2.5h-6.7v2.5h-6.7v2.5h-6v2h-13.7v-2h6.4v-2.5h6.6V761h6.7v-2.5h6.7v-2.4h6.4v-3h8.2v-2h5.5v-2.5h6.7V746h6.7v-2H890.8v2h-6.7v2.5h-6.7v2.5h-6.6v2.5H864v2.5h-5.5v2.4h-7.9v2.5H844v2.5h-6.7v2.5h-6v2h-13.7v-2h6.3v-2.5h6.7V761h6.7v-2.5h6.7v-2.4h6.4v-3h8.2v-2h5.5v-2.5h6.7V746h6.6v-2H603.8v2h-6.7v2.5h-6.7v2.5h-6.6v2.5H577v2.5h-5.5v2.4h-7.9v2.5H557v2.5h-6.7v2.5h-6v2h-13.7v-2h6.3v-2.5h6.7V761h6.7v-2.5h6.7v-2.4h6.4v-3h8.2v-2h5.5v-2.5h6.7V746h6.6v-2H316.8v2h-6.7v2.5h-6.7v2.5h-6.6v2.5H290v2.5h-5.5v2.4h-8v2.5H270v2.5h-6.7v2.5h-6v2h-13.7v-2h6.3v-2.5h6.7V761h6.7v-2.5h6.7v-2.4h6.4v-3h8.2v-2h5.5v-2.5h6.7V746h6.6v-2H29.8v2h-6.7v2.5h-6.7v2.5H9.8v2.5H3v2.5h-5.5v2.4-7.5h5.5v-2.4h6.7V746h6.6v-2H-40v-3h1325M1429 767h-7v1h-3v-1h2v-1h8z"/><path fill="#2c2c2c" d="M401 765h-7v1h-3v-1h2v-1h8zM879 765h-7v1h-3v-1h2v-1h8zM1376 765h-11v-1h10v-1h5v1h-4zM404 764h-3v-1h3zM882 764h-3v-1h3zM38 761h-3v-1h3zM48 759h-2v1h-8v-1h7v-1h3zM57 757h-1v1h-8v-1h7v-1h2zM1029 756h-7v1h-3v-1h2v-1h8zM252 755h-4v1h-4v-1h3v-1h5zM1113 755h-4v1h-4v-1h3v-1h5zM1041 753h-7v1h-2v1h-3v-1h2v-1h2v-1h8zM516 753h-7v1h-3v-1h2v-1h8zM1263 749h3v1h2v1h-3v-1h-2v3h-1v-7h1zM519 752h-3v-1h3zM1044 752h-3v-1h3zM752 751h-4v1h-4v-1h3v-1h5z"/><path fill="#ff6e75" d="M180 759h-2v1h1v2h-2v-1h-5v-2h2v-2h6z"/><path fill="#000" d="M179 760h-1v-1h2v-2h-6v2h-2v2h5v1h2zm2 0h-1v3h-4v-1h-5v-4h2v-2h8z"/><path fill="#013767" d="M471.2 358.2v77h15.7l8 8.1v16.3h-45l-8-8V442l-4.7-4.8V350h26zm97.7 0v6h1.4l8.2 8v9.6l4.7 4.7v6.1h2.1v-14.1h4.7v-14.3h7.2V350h26l8 8.2v7l7.2 7v9.6l4.6 4.7v9.5l2.7 2.7v-34.5h4.8V350h49.6l8.2 8.2v6h1.3l8.1 8v9.6l2.6 2.6V350h21.2l6.6 6.7V350h30.7l8 8.2v6h1.6l8 8v9.6l4 4V350h21.1l8 8.2v20.3h2.8v-14.3h9.5V350h54.4l8 8.2v6h1.4l8.2 8v16.5H883l-8-8.1v-6.1h-4v14.2h-4.7v35.7l4.7 4.7v6h4v-14h4.7V417h-1.4l-8.1-8v-16.6h35.4l8 8.2v9.4l4.9 4.8v16.4h-4.7v14.3h-9.6v14.1h-54.4l-8-8v-6.1h-1.4l-8-8.2V428l-2.8-2.7v34.4h-40.2l-7.2-7.2v7.2h-26l-6.7-6.6v6.6h-21.2l-8-8v-20.4h-2.6v14.3h-9.4v14.1h-54.5l-6-6v6h-26l-7.2-7.3v7.3h-26l-8-8v-20.4h-2.1v14.3h-9.6v14.1h-54.3l-8-8v-6.1H505l-8-8.2V428l-4.8-4.7v-44.7h4.7v-14.3h9.5V350H561zm-130.7 78h4.8v14.3h42.8v-14.3H462v-85.1h-23.9zm69.4-70.9h-9.5v14.3h-4.7V422h4.7v14.1h9.5v14.3h52.2v-14.3h9.5v-14.1h4.7v-42.5h-4.7v-14.3h-9.5v-14.2h-52.2zm90.6 0h-7.1v14.3h-4.7v14.1h-3.2v37.5h-1.6v19.3h23.8v-23.7h9.5v23.7h23.7v-56.8h-4.7v-14.1h-4.8v-14.3h-7v-14.2h-23.9zm53.4 0h-4.8v34.5l1 1v49.7H699v-14.3h9.5v-14.1h4.8v-42.5h-4.8v-14.3H699v-14.2h-47.4zm69.8 20.2 1 1v44.7h-1v19.3h19V351h-19zm27.8-27.7.3.4v92.3H773v-42.6h4.7v28.3h4.7v14.3h38V351h-19v56.6h-4.7v-14H792v-14.1h-4.6v-14.3h-9.6v-14.2h-28.5zm93.7 7.5h-9.5v14.3h-3.8V422h3.8v14.1h9.5v14.3H895v-14.3h9.4v-14.1h4.8v-14.2h-4.8v-14.4h-33.2v14.4h9.5V422H876v14.1H862v-14.1h-4.8v-42.6h4.8v-14.2H876v14.2h28.5v-14.2h-9.4v-14.2h-52.2zm93.8 85.2h-17.1v-14.2h17zm31 0h-17v-14.2h17zm31 0h-17v-14.2h17zm-318.7-71h4.8V422H680v14.1h-9.4v-70.9h9.4zm-139.2 0h4.7V422h-4.7v14h-14.2v-14h-4.8v-42.6h4.8v-14.2h14.2zm-5 9.2H531v35.7l4.8 4.7v6h3.9v-14h4.8v-35.8l-4.8-4.7v-6.1h-4zm144 32.3h3.9v-35.7l-4-3.9zm-65-8.5h-9.4v-18.8h9.5z"/><path fill="#000" d="M474.2 357v75.2h14l5.8 6v-9l-4.7-4.7v-49h4.7v-14.3h9.5V347h58.6l9.8 10v4.6l9.6 9.4v9.5l.8.9v-6h4.7v-14.2h7.2V347h30.2l9.8 10v6.9l7.2 7.2v9.4l1.3 1.4v-20.7h4.8V347h53.9l9.9 10v4.7l6 6V347h25.5l2.3 2.4V347h35l9.7 10v4.5l7.5 7.5v-22h25.5l9.8 10v4.2h6.2V347h58.6l9.8 10v4.6l9.6 9.4v20.7H909l7.6 7.6v9.5l4.8 4.8v19.7h18.2v20.2h-23.1v-5h-9.4v14.1h-58.6l-9.8-9.8v-4.7l-6.2-6.3v20.8h-44.4l-3-3v3h-30.3l-2.4-2.4v2.4h-25.4l-9.8-9.8v-4.3h-6v14.1h-58.8l-1.7-1.7v1.7h-30.2l-3-3v3h-30.3l-9.8-9.8v-4.3H572v14.1h-58.6l-9.8-9.8v-4.7l-5.6-5.6v20.1h-49.2l-9.8-9.8v-9.4l-4.7-4.8V347h30.2zm-37 80.3 4.7 4.8v9.5l8 8h45v-16.3l-8-8.1h-15.7v-77l-8-8.2h-26zm69.3-73H497v14.2h-4.7v44.7l4.7 4.7v9.4l8.1 8.2h1.4v6l8 8.1H569v-14.1h9.6v-14.3h2v20.4l8 8h26v-7.3l7.3 7.3h26v-6l6 6h54.5v-14.1h9.4v-14.3h2.6v20.4l8 8h21.2V453l6.7 6.6h26v-7.2l7.2 7.2h40.2v-34.4l2.7 2.7v9.4l8 8.2h1.5v6l8 8.1h54.4v-14.1h9.6v-14.3h4.7v-16.4l-4.8-4.8v-9.4l-8-8.2h-35.5V409l8.1 8h1.4v4.1H875v14.2h-4V429l-4.7-4.7v-35.7h4.7v-14.2h4v6l8 8.2h30.8v-16.4l-8.2-8h-1.4v-6.1l-8-8.2h-54.4v14.2h-9.5v14.3h-2.7v-20.3l-8-8.2h-21.3v35.8l-3.9-4v-9.5l-8-8h-1.6v-6.1l-8-8.2H748v6.7l-6.6-6.7h-21.2v34.4l-2.6-2.6v-9.5l-8.1-8h-1.3v-6.1L700 350h-49.6v14.2h-4.8v34.5L643 396v-9.5l-4.6-4.7v-9.5l-7.2-7.2v-7l-8-8.1h-26v14.2H590v14.3h-4.7v14.1h-2.1v-6l-4.7-4.8v-9.5l-8.2-8H569v-6.1l-8-8.2h-54.4zm464.2 89.2h-23v-20.2h23zm31 0h-23v-20.2h23zM462 436.2h23.7v14.3H443v-14.3h-4.8v-85.1h23.9zm97.7-70.9h9.5v14.3h4.7V422h-4.7v14.1h-9.5v14.3h-52.2v-14.3h-9.5v-14.1h-4.7v-42.5h4.7v-14.3h9.5v-14.2h52.2zm62.3 0h7v14.3h4.8v14.1h4.7v56.8h-23.7v-23.7h-9.5v23.7h-23.8v-19.3h1.6v-37.5h3.2v-14.1h4.7v-14.3h7.1v-14.2h23.9zm77 0h9.4v14.3h4.8V422h-4.8v14.1H699v14.3h-51.2v-49.7l-1-1v-34.5h4.8v-14.2H699zm41.3 85.2h-19v-19.3h1v-44.7l-1-1V351h19zm37.3-85.2h9.6v14.3h4.6v14.1h4.8v14h4.7v-56.6h19v99.4h-38v-14.3h-4.7V408H773v42.6h-23.5v-92.3l-.3-.4v-6.7h28.5zm117.4 0h9.4v14.2H876v-14.2H862v14.2h-4.8V422h4.8v14.1H876v-14.1h4.8v-14.2h-9.5v-14.4h33.2v14.4h4.8V422h-4.8v14.1h-9.4v14.3h-52.2v-14.3h-9.5v-14.1h-3.8v-42.5h3.8v-14.3h9.5v-14.2H895zm24.5 85.2h17v-14.2h-17zm31 0h17v-14.2h-17zm31 0h17v-14.2h-17zm-540.4-17.3h4.8v14.3h36.8v-8.3H459v-85.1h-17.9zm69.4-64.9h-9.5v14.3h-4.7V419h4.7v14.1h9.5v14.3h46.2v-14.3h9.5v-14.1h4.7v-36.5h-4.7v-14.3h-9.5v-14.2h-46.2zm90.6 0h-7.1v14.3h-4.7v14.1h-3.2v37.5h-1.6v13.3h17.8v-23.7H618v23.7h17.7v-50.8h-4.7v-14.1h-4.8v-14.3h-7v-14.2h-17.9zm53.4 0h-4.8v30.2l1 1v48H696v-14.3h9.5v-14.1h4.8v-36.5h-4.8v-14.3H696v-14.2h-41.4zm69.8 16 1 1v49h-1v13.2h13V354h-13zm27.8-27.7.3.3v90.6H770v-42.6h10.7v28.3h4.7v14.3h32V354h-13v56.6h-10.7v-14H789v-14.1h-4.6v-14.3h-9.6v-14.2h-22.5zm93.7 11.7h-9.5v14.3h-3.8V419h3.8v14.1h9.5v14.3H892v-14.3h9.4v-14.1h4.8v-8.2h-4.8v-14.4h-27.2v8.4h9.5V425H879v14.1H859v-14.1h-4.8v-48.6h4.8v-14.2H879v14.2h22.5v-8.2h-9.4v-14.2h-46.2zm-163 8.2h4.9V425H683v14.1h-15.4v-76.9H683zm-139.1 0h4.8V425h-4.8v14h-20.2v-14h-4.8v-48.6h4.8v-14.2h20.2zm126.8 59.7h9.4v-14.1h4.8v-42.6H680v-14.2h-9.4zm-144-56.7h-4.8V422h4.8v14h14.2v-14h4.8v-42.6h-4.8v-14.2h-14.2zm13 1 4.9 4.8V421h-4.8v14h-4v-6l-4.7-4.6v-35.7h4.8v-14.2h3.9zm329.7 42.6 2.7 2.7V418h3l-5.7-5.7zm-330.5-31.4H534v31.4l2.7 2.7V418h4.8v-31.4l-2.7-2.7zm144.9-6.4V421h-4v-39.6zm-65.8 30.2h-15.5v-24.8H618zm-12.5-3h9.5v-18.8h-9.5zm268.6-23h5.5l-5.5-5.6z"/><path fill="#08c9ff" d="M936.7 450.5h-17.1v-14.2h17zm31 0h-17v-14.2h17zm31 0h-17v-14.2h17zM462 436.2h23.7v14.3H443v-14.3h-4.8v-85.1h23.9zm97.7-70.9h9.5v14.3h4.7V422h-4.7v14.1h-9.5v14.3h-52.2v-14.3h-9.5v-14.1h-4.7v-42.5h4.7v-14.3h9.5v-14.2h52.2zm62.3 0h7v14.3h4.8v14.1h4.7v56.8h-23.7v-23.7h-9.5v23.7h-23.8v-56.8h4.8v-14.1h4.7v-14.3h7.1v-14.2h23.9zm77 0h9.4v14.3h4.8V422h-4.8v14.1H699v14.3h-52.2v-85.2h4.8v-14.2H699zm41.3 85.2h-19V351h19zm37.3-85.2h9.6v14.3h4.6v14.1h4.8v14h4.7v-56.6h19v99.4h-38v-14.3h-4.7V408H773v42.6h-23.8V351h28.5zm117.4 0h9.4v14.2H876v-14.2H862v14.2h-4.8V422h4.8v14.1H876v-14.1h4.8v-14.2h-9.5v-14.4h33.2v14.4h4.8V422h-4.8v14.1h-9.4v14.3h-52.2v-14.3h-9.5v-14.1h-4.8v-42.5h4.8v-14.3h9.5v-14.2H895zm-224.5 71h9.4V422h4.8v-42.6H680v-14.2h-9.4zm-144-56.8h-4.8V422h4.8v14h14.2v-14h4.8v-42.6h-4.8v-14.2h-14.2zm78.8 33h9.5v-18.8h-9.5z"/><path fill="#bdf1ff" d="M936.7 450.5h-17.1v-14.2h17zm31 0h-17v-14.2h17zm31 0h-17v-14.2h17zM462 436.2h23.7v14.3H443v-14.3h-4.8v-85.1h23.9zm97.7-70.9h9.5v14.3h4.7V422h-4.7v14.1h-9.5v14.3h-52.2v-14.3h-9.5v-14.1h-4.7v-42.5h4.7v-14.3h9.5v-14.2h52.2zm62.3 0h7v14.3h4.8v14.1h4.7v56.8h-23.7v-23.7h-9.5v23.7h-23.8v-56.8h4.8v-14.1h4.7v-14.3h7.1v-14.2h23.9zm77 0h9.4v14.3h4.8V422h-4.8v14.1H699v14.3h-52.2v-85.2h4.8v-14.2H699zm41.3 85.2h-19V351h19zm37.3-85.2h9.6v14.3h4.6v14.1h4.8v14h4.7v-56.6h19v99.4h-38v-14.3h-4.7V408H773v42.6h-23.8V351h28.5zm117.4 0h9.4v14.2H876v-14.2H862v14.2h-4.8V422h4.8v14.1H876v-14.1h4.8v-14.2h-9.5v-14.4h33.2v14.4h4.8V422h-4.8v14.1h-9.4v14.3h-52.2v-14.3h-9.5v-14.1h-4.8v-42.5h4.8v-14.3h9.5v-14.2H895zm27.5 82.2h11v-8.2h-11zm31 0h11v-8.2h-11zm31 0h11v-8.2h-11zm-543.4-14.3h4.8v14.3h36.8v-8.3H459v-85.1h-17.9zm69.4-64.9h-9.5v14.3h-4.7V419h4.7v14.1h9.5v14.3h46.2v-14.3h9.5v-14.1h4.7v-36.5h-4.7v-14.3h-9.5v-14.2h-46.2zm90.6 0h-7.1v14.3h-4.7v14.1h-4.8v50.8h17.8v-23.7H618v23.7h17.7v-50.8h-4.7v-14.1h-4.8v-14.3h-7v-14.2h-17.9zm53.4 0h-4.8v79.2H696v-14.3h9.5v-14.1h4.8v-36.5h-4.8v-14.3H696v-14.2h-41.4zm69.8 79.2h13V354h-13zm27.8 0H770v-42.6h10.7v28.3h4.7v14.3h32V354h-13v56.6h-10.7v-14H789v-14.1h-4.6v-14.3h-9.6v-14.2h-22.5zm93.7-79.2h-9.5v14.3h-4.8V419h4.8v14.1h9.5v14.3H892v-14.3h9.4v-14.1h4.8v-8.2h-4.8v-14.4h-27.2v8.4h9.5V425H879v14.1H859v-14.1h-4.8v-48.6h4.8v-14.2H879v14.2h22.5v-8.2h-9.4v-14.2h-46.2zm-163 8.2h4.9V425H683v14.1h-15.4v-76.9H683zm-139.1 0h4.8V425h-4.8v14h-20.2v-14h-4.8v-48.6h4.8v-14.2h20.2zm126.8 59.7h9.4v-14.1h4.8v-42.6H680v-14.2h-9.4zm-144-56.7h-4.8V422h4.8v14h14.2v-14h4.8v-42.6h-4.8v-14.2h-14.2zm91.3 36h-15.5v-24.8H618zm-12.5-3h9.5v-18.8h-9.5z"/></g><defs><clipPath id="a"><path fill="#fff" d="M0 0h1440v810H0z"/></clipPath></defs></svg>