<svg xmlns="http://www.w3.org/2000/svg" fill="none" viewBox="0 0 1440 810"><path fill="#FEFEFE" d="M74.5 292.2h18.7v3.2h9.4v3h6.2v3.2h3v3.2h6.3v3h3.2v3.2h3v3h6.4v-3h3v-3h9.5v3.1h3v3H162v3.3h3.1v3h-6.3v3.2H37V314h6.2v-3h6.3v3h21.8v-3h-3v-3.2H55.7v-6.3H62v-3.1h3v-3h3.2v-3.3h6.2Z"/><path fill="#FEE6AB" d="M74.5 292.2v-3h6.2V286h22v3.2h6.1v3h6.3v3.2h3v3h3.2v3.2h3v3.2h3.2v3h3.2v-3h9.3v-3.2h6.2v3.2h6.3v3h3.1v6.3h-9.4v-3h-3v-3.2h-9.4v3.1h-3v3h-6.4v-3h-3v-3H118v-3h-6v-3.3h-3v-3.2h-6.3v-3h-9.4v-3.2H74.5Z"/><path fill="#FEE6AB" d="M55.7 307.8h12.6v3.2h3v3H49.5v-3h3.1v-3.2h3Z"/><path fill="#FEFEFE" d="M1103.5 126.2h18.7v3.2h9.4v3h6.2v3.2h3v3.2h6.3v3h3.2v3.2h3v3h6.4v-3h3v-3h9.5v3.1h3v3h15.7v3.3h3.1v3h-6.3v3.2H1066V148h6.2v-3h6.3v3h21.8v-3h-3v-3.2h-12.6v-6.3h6.4v-3.1h3v-3h3.2v-3.3h6.2Z"/><path fill="#FEE6AB" d="M1103.5 126.2v-3h6.2V120h22v3.2h6.1v3h6.3v3.2h3v3h3.2v3.2h3v3.2h3.2v3h3.2v-3h9.3v-3.2h6.2v3.2h6.3v3h3.1v6.3h-9.4v-3h-3v-3.2h-9.4v3.1h-3v3h-6.4v-3h-3v-3h-3.3v-3h-6.2v-3.3h-3v-3.2h-6.3v-3h-9.4v-3.2h-18.7Z"/><path fill="#FEE6AB" d="M1084.7 141.8h12.6v3.2h3v3h-21.8v-3h3.2v-3.2h3Z"/><path fill="#FEE6AB" d="M1309.3 326.2v-2.4h11.5v2.4h4.6v2.1h4.6v2.4h4.5v4.6h2.4v4.5h-2.4v-2.1h-4.5v-2.4h-2.3V333h-4.7v-2.3h-6.8v-2.4h-6.9v-2.1Z"/><path fill="#FEE6AB" d="M1339.2 339.8v2.4h-2.3v-2.4h2.3Z"/><path fill="#FEE6AB" d="M1224.3 300.8v-2.3h4.6v-2.2h2.2V294h29.9v2.3h11.5v2.2h2.3v2.3h4.7v2.4h2.2v2.3h4.6v2.2h2.4v2.3h2.3v2.3h2.2v2.4h2.3v2.3h2.3v4.5h2.4v2.3h2.1v2.4h2.4v2.1h2.3v4.7h2.3v2.3h2.2v2.4h2.3v2.2h2.4v2.3h2.3v2.3h-7v-2.3h-2.2v-2.3h-2.3v-2.2h-2.3v-2.4h-4.5V333h-2.4v-2.3h-2.3v-2.4h-4.5v-2.1h-2.3v-2.4h-2.4v-2.3h-2.3v-2.3h-2.3V317h-2.2v-2.3h-2.3v-2.4h-2.4V310h-4.5v-2.3h-4.7v-2.2h-4.6v-2.3h-6.9v-2.4h-13.8v-2.3h-9.2v2.3h-6.8Z"/><path fill="#FEFEFE" d="M1224.3 300.8h6.8v-2.3h9.2v2.3h13.8v2.4h6.9v2.3h4.7v2.2h4.6v2.3h4.5v2.3h2.4v2.4h2.3v2.3h2.2v2.2h2.3v2.3h2.3v2.3h2.4v2.4h2.3v2.2h4.5v2.3h2.3v2.3h2.4v2.3h4.5v2.4h2.3v2.2h2.3v2.3h2.2v2.3h7v-2.3h-2.3v-2.3h-2.4v-2.2h-2.3v-2.4h-2.2V333h-2.3v-4.6h-2.3v-2.2h4.6v2.2h6.9v2.3h6.8v2.3h4.7v2.3h2.3v2.4h4.5v2.2h2.4v2.3h2.3v-2.3h-2.3v-2.2h2.3v2.2h2.3v2.3h4.5v2.3h4.7v4.5h-11.5v2.4h-204.5V349h-4.7v-2.2h2.3v-2.3h2.4v-2.3h4.5v-2.3h2.3v-2.2h2.3v-2.4h2.4V333h4.5v-2.3h2.3v-2.4h2.3v-2.1h2.4v-2.4h2.1v2.4h16.2v2.1h4.5v2.4h4.7v2.3h4.5v2.3h2.3v2.4h2.4v2.2h2.3v2.3h4.5v-2.3h-2.2v-4.6h-2.3V333h-2.3v-2.3h-2.4v-4.5h2.4v-2.3h2.3v-2.4h2.3v-2.3h2.2V317h2.3v-2.3h2.4v-2.4h2.3V310h2.2v-2.3h4.6v-2.2h2.4v-2.3h2.3v-2.4h4.5Z"/><path fill="#FEE6AB" d="M1159.9 323.8v-2.3h20.6v2.3h4.7v2.4h6.9v4.5h2.3v2.3h2.3v2.3h2.4v4.5h2.1v2.4h-4.5v-2.4h-2.3v-2.1h-2.3v-2.4h-2.4V333h-4.5v-2.3h-4.6v-2.4h-4.5v-2.1h-16.2v-2.4Z"/><path fill="#FEE6AB" d="M300.3 670.2v-2.4H312v2.4h4.5v2.1h4.6v2.4h4.5v4.6h2.4v4.5h-2.4v-2.1H321v-2.4h-2.3V677H314v-2.3h-6.8v-2.4h-6.9v-2.1Z"/><path fill="#FEE6AB" d="M330.2 683.8v2.4H328v-2.4h2.3Z"/><path fill="#FEE6AB" d="M215.3 644.8v-2.3h4.6v-2.2h2.2V638H252v2.3h11.5v2.2h2.3v2.3h4.7v2.4h2.2v2.3h4.6v2.2h2.4v2.3h2.3v2.3h2.2v2.4h2.3v2.3h2.3v4.5h2.4v2.3h2.1v2.4h2.4v2.1h2.3v4.7h2.3v2.3h2.2v2.4h2.3v2.2h2.4v2.3h2.3v2.3h-7v-2.3h-2.2v-2.3H298v-2.2h-2.3v-2.4h-4.5V677h-2.4v-2.3h-2.3v-2.4H282v-2.1h-2.3v-2.4h-2.4v-2.3H275v-2.3h-2.3V661h-2.2v-2.3H268v-2.4h-2.3V654h-4.5v-2.3h-4.7v-2.2H252v-2.3h-7v-2.4h-13.8v-2.3H222v2.3h-6.8Z"/><path fill="#FEFEFE" d="M215.3 644.8h6.8v-2.3h9.2v2.3H245v2.4h6.9v2.3h4.6v2.2h4.7v2.3h4.5v2.3h2.4v2.4h2.3v2.3h2.2v2.2h2.3v2.3h2.3v2.3h2.4v2.4h2.3v2.2h4.5v2.3h2.3v2.3h2.4v2.3h4.5v2.4h2.3v2.2h2.3v2.3h2.2v2.3h7v-2.3h-2.3v-2.3h-2.4v-2.2h-2.3v-2.4h-2.2V677H298v-4.6h-2.3v-2.2h4.6v2.2h6.9v2.3h6.8v2.3h4.7v2.3h2.3v2.4h4.5v2.2h2.4v2.3h2.3v-2.3H328v-2.2h2.3v2.2h2.3v2.3h4.5v2.3h4.7v4.5h-11.5v2.4H125.7V693H121v-2.2h2.3v-2.3h2.4v-2.3h4.5v-2.3h2.3v-2.2h2.3v-2.4h2.4V677h4.5v-2.3h2.3v-2.4h2.3v-2.1h2.4v-2.4h2.1v2.4H167v2.1h4.5v2.4h4.7v2.3h4.5v2.3h2.3v2.4h2.4v2.2h2.3v2.3h4.5v-2.3H190v-4.6h-2.3V677h-2.3v-2.3H183v-4.5h2.4v-2.3h2.3v-2.4h2.3v-2.3h2.2V661h2.3v-2.3h2.4v-2.4h2.3V654h2.2v-2.3h4.7v-2.2h2.3v-2.3h2.3v-2.4h4.5Z"/><path fill="#FEE6AB" d="M150.9 667.8v-2.3h20.7v2.3h4.6v2.4h6.9v4.5h2.3v2.3h2.3v2.3h2.4v4.5h2.1v2.4h-4.5v-2.4h-2.3v-2.1h-2.3v-2.4h-2.4V677h-4.5v-2.3h-4.6v-2.4H167v-2.1h-16.2v-2.4Z"/><path fill="#FEE6AB" d="M257.7 21.5v-1.9h3.8v1.9h-3.8Z"/><path fill="#FEFEFE" d="M211.7 14v1.8h1.8v1.9h11.2v2h3.6v1.8h3.6v1.8h2V25h3.6v2h1.8v2h1.8v1.8h2v1.9h1.7v3.6h1.8v2h3.7V40h2v1.8h1.7v3.8h1.8v1.9h1.8v1.8h16.6v-3.7h-5.4v-2h-2v-1.8H265V40h-1.8v-5.6h-3.6v-3.7h-2V29h-1.8v-3.8h3.8v-1.8h3.6v1.8h1.8V27h1.8v2h2v1.8h1.8v1.8h1.8v1.8h1.8v1.8h1.8v2h3.8V40h1.8v2h1.8v1.8h1.8v2h2v-2h1.7v2h1.9v1.8h1.8v1.8h3.7v1.8h3.6v-1.8h-3.6v-1.8h-1.8v-1.8h-3.7v-2h3.7v2h7.2v-2h7.4v2h22.2v1.8h11v1.8H357V55h-11.1v1.8h-16.5v1.9H311v1.8h-16.4v1.8H289v2h-9.1V66H50v-1.8h1.8v-2h1.8v-1.8h5.6v-1.9h3.6v-1.8h1.8V55h1.8v-2h3.8v-1.8H72v-1.8h5.6v-1.9h1.8v-1.8H83v-3.8h5.5V40h1.8v-1.8h3.8v-2H96v-1.8h1.8v-1.9h3.6v-1.8h2V29h3.6v-2h11v2h2v1.8h1.8v5.5H120v9.4h1.8v3.7h5.4V51h9.2v1.8h7.3V51h3.8v-1.8h-2v-1.9h-3.6v-1.8h-3.6v-2h-5.5v-1.8h-1.9v-3.6h3.7v-2h1.8v-1.8h3.7v-1.9h3.6v-1.8h1.9v1.8h5.5v1.9h1.8v1.8h5.6v2h1.8V40h1.8v1.8h3.8v1.8h16.5v-1.8h-3.7V40H175v-1.8h3.6v-2h1.8v-1.8h2v-3.7h1.7V29h1.9v-4h3.7v-1.8h3.6v-1.9h3.6v-1.8h5.6v-2h3.6v-1.8h3.8V14h1.8Z"/><path fill="#FEE6AB" d="M110.7 27v-2h1.8v-1.8h11V25h1.8v1.8h1.8V40h3.8v1.8h1.8v1.8h5.5v2h3.6v1.8h3.7v1.9h2V51h-3.8v1.8h-7.4V51H127v-1.8h-5.4v-3.7h-1.8v-9.4h1.8v-5.5h-1.8V29h-2v-2h-7.2Z"/><path fill="#FEE6AB" d="M145.5 30.7V29h9.3v1.8h3.6v1.9h1.8v1.8h3.8v1.8h3.6v2h7.4V40h3.6v1.8h3.8v1.8h-16.6v-1.8H162V40h-1.8v-1.8h-1.8v-2h-5.6v-1.8H151v-1.9h-5.5v-1.8Z"/><path fill="#FEE6AB" d="M294.5 45.6v1.8h1.8v1.9h3.6V51h-3.6v-1.8h-3.7v-1.9h-1.8v-1.8h3.7Z"/><path fill="#FEE6AB" d="M219 14h9.3v1.8h5.5v1.9h1.9v2h3.6v1.8h3.7v1.8h9.2v-1.8h9.2v-1.9h1.8v1.9h1.8v1.8h3.8V25h1.8v2h1.8v2h1.8v1.8h1.8v1.9h2v1.8h1.8v1.8h1.8v2h3.6V40h2v1.8h1.7v1.9h5.6v2H289v-2h-1.8v2h-2v-2h-1.7v-1.9h-1.8V40h-1.8v-1.8H276v-2h-1.8v-1.8h-1.8v-1.8h-1.8v-1.9h-1.8V29h-2v-2H265v-1.8h-1.8v-1.8h-3.6V25h-3.8v3.8h1.8v1.8h2v3.7h3.6V40h1.8v1.8h1.8v1.8h2v2h5.4v3.7h-16.6v-1.9h-1.8v-1.8H254v-3.8h-1.8V40h-2v-1.8h-3.6v-2h-1.8v-3.7H243v-1.8h-2V29h-1.7v-2h-1.8v-1.8h-3.7v-1.8h-2v-1.8h-3.5v-1.9h-3.6v-2h-11.2v-1.8h-1.8V14h7.4Z"/><path fill="#FEE6AB" d="M1233.7 696.5v-1.9h3.8v1.9h-3.8Z"/><path fill="#FEFEFE" d="M1187.7 689v1.8h1.8v1.9h11.2v2h3.6v1.8h3.6v1.8h2v1.8h3.6v1.8h1.8v2h1.8v1.8h2v1.9h1.7v3.6h1.8v2h3.7v1.8h2v1.8h1.7v3.8h1.8v1.9h1.8v1.8h16.6v-3.7h-5.4v-2h-2v-1.8h-1.8V715h-1.8v-5.6h-3.6v-3.7h-2V704h-1.8v-3.8h3.8v-1.8h3.6v1.8h1.8v1.9h1.8v2h2v1.8h1.8v1.8h1.8v1.8h1.8v1.8h1.8v2h3.8v1.8h1.8v1.9h1.8v1.8h1.8v2h2v-2h1.8v2h1.8v1.8h1.8v1.8h3.7v1.8h3.6v-1.8h-3.6v-1.8h-1.8v-1.8h-3.7v-2h3.7v2h7.3v-2h7.3v2h22.2v1.8h11v1.8h14.7v5.6h-11.1v1.8h-16.5v1.9H1287v1.8h-16.4v1.8h-5.5v2h-9.2v1.8H1026v-1.8h1.8v-2h1.8v-1.8h5.6v-1.9h3.6v-1.8h1.8V730h1.8v-2h3.8v-1.8h1.8v-1.8h5.5v-1.9h1.9v-1.8h3.6v-3.8h5.5V715h1.8v-1.8h3.8v-2h1.8v-1.8h1.8v-1.9h3.6v-1.8h2V704h3.6v-2h11v2h2v1.8h1.8v5.5h-1.8v9.4h1.8v3.7h5.4v1.8h9.2v1.8h7.3v-1.8h3.8v-1.8h-2v-1.9h-3.6v-1.8h-3.6v-2h-5.5v-1.8h-1.9v-3.6h3.7v-2h1.8v-1.8h3.7v-1.9h3.6v-1.8h1.9v1.8h5.5v1.9h1.8v1.8h5.6v2h1.8v1.8h1.8v1.8h3.8v1.8h16.5v-1.8h-3.7V715h-3.6v-1.8h3.6v-2h1.8v-1.8h2v-3.7h1.7V704h1.9v-4h3.7v-1.8h3.6v-1.9h3.6v-1.8h5.6v-2h3.6v-1.8h3.8V689h1.8Z"/><path fill="#FEE6AB" d="M1086.7 702v-2h1.8v-1.8h11v1.8h1.8v1.8h1.8V715h3.8v1.8h1.8v1.8h5.5v2h3.6v1.8h3.7v1.9h2v1.8h-3.8v1.8h-7.4v-1.8h-9.2v-1.8h-5.4v-3.7h-1.8v-9.4h1.8v-5.5h-1.8V704h-2v-2h-7.2Z"/><path fill="#FEE6AB" d="M1121.5 705.7V704h9.3v1.8h3.6v1.9h1.8v1.8h3.8v1.8h3.6v2h7.4v1.8h3.6v1.8h3.8v1.8h-16.6v-1.8h-3.8V715h-1.8v-1.8h-1.8v-2h-5.6v-1.8h-1.8v-1.9h-5.5v-1.8Z"/><path fill="#FEE6AB" d="M1270.5 720.6v1.8h1.8v1.9h3.7v1.8h-3.7v-1.8h-3.7v-1.9h-1.8v-1.8h3.7Z"/><path fill="#FEE6AB" d="M1195 689h9.3v1.8h5.6v1.9h1.8v2h3.6v1.8h3.7v1.8h9.2v-1.8h9.2v-1.9h1.8v1.9h1.8v1.8h3.8v1.8h1.8v1.8h1.8v2h1.8v1.8h1.8v1.9h2v1.8h1.8v1.8h1.8v2h3.6v1.8h2v1.8h1.8v1.9h5.5v2h-5.6v-2h-1.8v2h-2v-2h-1.7v-1.9h-1.8V715h-1.8v-1.8h-3.8v-2h-1.8v-1.8h-1.8v-1.8h-1.8v-1.9h-1.8V704h-2v-2h-1.8v-1.8h-1.8v-1.8h-3.6v1.8h-3.8v3.8h1.8v1.8h2v3.7h3.6v5.6h1.8v1.8h1.8v1.8h2v2h5.4v3.7h-16.6v-1.9h-1.8v-1.8h-1.8v-3.8h-1.8V715h-2v-1.8h-3.6v-2h-1.8v-3.7h-1.8v-1.8h-2V704h-1.7v-2h-1.8v-1.8h-3.7v-1.8h-2v-1.8h-3.5v-1.9h-3.6v-2h-11.2v-1.8h-1.8V689h7.4Z"/></svg>