<svg xmlns="http://www.w3.org/2000/svg" fill="none" viewBox="0 0 116 100"><path fill="#FEB200" d="M5 12h19v4.6H9.7l.1 18.9H5.1C5 27.7 4.9 19.9 5 12Z"/><path fill="#FEB200" d="M9.8 44.8v-9.2h4.6v4.7l4.8.2v4.4l9.4-.1v4.3c-4.7 0-9.5 0-14.2.2v-4.5H9.8Z"/><path fill="#FEB200" d="m37.4 54.3.1-5h-4.2v-4.5h-4.6v-40h34.7c8-.1 16.1 0 24.1-.2v7c-.1 11-.3 22.1-.2 33.2 3.2 0 6.4.2 9.7.1v-4.6h4.6v-4.8h4.4l.2-18.8H91.9v-4.5l19.3-.2-.3 23.5h-4.8v9.4l-4.6-.1v4.6l-.2-.1h-14v-4.5h-4.6v4.5h-4.2l.1 5H74v4.4h-9v4.8H51v-4.8h-8.6v-4.4h-5Z"/><path fill="#FFEBBE" d="M72.6 14.6v19.7h-1v2h-1v2h-1.1v1.1h-1v1h-1v1h-1.1v1.2h-2.1v1h-3.1v1H55v-1h-3.1v-1h-2v-1.1h-1v-1h-1.1v-1h-1v-1.1h-1v-1h-1.2v-2.1h-1v-3.1h-1V28h1v-4h1v-2.2h1.1v-2h1v-1h1v-1.1h1.1v-1h2v-1H53v-1.1h19.7Zm-5.2 5.2H54v1h-2.1v1h-1V23h-1v2h-1v3h-1.1v3.2h1v3h1v1h1v1.1h1v1H53v1h3v1.1h4.2v-1h2v-1h2.1v-1h1v-1.1h1v-1h-2v-1h-2v1h-2.1v1H56v-1h-2v-1h-1v-2.1h-1.1V27h1v-1h1v-1h1v-1h9.4v-1.1h2v-1h1.1v-2.1Z"/><path fill="#000" d="M37.5 54.3h4.8v4.4h-4.8v-4.4Z"/><path fill="#000" d="M73.9 58.7c.7 0 4.2.4 4.6.1.2-.1.1-3.9.1-4.5H74v4.4Z"/><path fill="#000" d="M65.1 58.7v4.8h-14v-4.8h-8.7V64h5.3l-.1 14h-9.4v4.5H78V78l-9.5-.1v-14h5.4v-5.1H65Zm-1.2 19.4H52.3V67.9h11.6v10.2Z"/><path fill="#000" d="M9.8 44.8v4.6c1.6.1 3.1 0 4.6-.1v-4.5H9.8Z"/><path fill="#000" d="M111.3 12V7.5H92V0L24 .3v7.3H5v4.3l19 .1v4.7H9.7l.1 18.8H5.1C5 27.7 4.9 19.9 5 12H.6L.5 35.6l4.2-.1.1 9.3h5v-9.2h4.6v4.7l4.8.2v4.4l9.4-.1v4.3c-4.7 0-9.5 0-14.2.2V54c7.7.3 15.3.1 23 .2l.1-5h-4.2v-4.5h-4.6v-40h34.7c8-.1 16 0 24.1-.2v7c-.1 11-.3 22.1-.2 33.2 3.2 0 6.4.2 9.7.1v-4.6h4.6v-4.8h4.4l.2-18.8H91.8c.2-1.5 0-3 0-4.5l19.4-.2-.3 23.5H106v9.4l-4.5-.1v4.6l-.3-.1h-14v-4.5h-4.5v4.5h-4.2l.1 5h23.1v-4.8l4.5-.1v-4.5h5l.1-9.3h4l.2-23.7h-4.2ZM24.1 40.2h-5v-5h-4.7V21.5l9.8-.1v19ZM92 21.5h9.7l-.1.5v13.3H97v4.9h-4.8s-.2-.2-.3-.1V21.5Z"/><path fill="#FEB200" d="M63.9 68H52.3v10h11.6V67.9Z"/><path fill="#FEB200" d="M78 82.5H38.2v6H78v-6Z"/><path fill="#FEB200" d="M85.7 91.1H30.5v6.1h55.2v-6Z"/><path fill="#000" d="M30.6 91.1H28v6.3h2.6v-6.3Z"/><path fill="#000" d="M87.8 91.1h-2.5v6.3h2.5v-6.3Z"/><path fill="#000" d="M38.2 82.4h-2.5v6.3h2.5v-6.3Z"/><path fill="#000" d="M80.4 82.4H78v6.3h2.5v-6.3Z"/><path fill="#000" d="M85.7 88.5H30.5v2.8h55.2v-2.8Z"/><path fill="#000" d="M85.7 97.3H30.5v2.7h55.2v-2.7Z"/></svg>