<svg xmlns="http://www.w3.org/2000/svg" fill="none" viewBox="0 0 1440 714"><g clip-path="url(#clip0_402_78303)"><path fill="#0E2D67" d="M-1 219h32.9V46.5h6v-18h6v-12h12v-6h12v-6l17.6.1V0H140v28.5c2.7.4 16.5 0 16.5 0v6h12v6h6v6h5.7v4.9h6.3V345h18v6h18V16.5h60v-6h112.6v11.3h6V225h36v30h30v12h6v12h64.6v5.4h12V309h24v64.5h18V279h24v-6h24.6v-5.8l11.5-.2v18h58.5v106.5h30V195h154.6v6h6v78h72v88.5h24V303h12v-48h6v-6h106.6v18h202.6v94.5h12V212.3h6V201h11.1v-6h29.5l.1-11.5h5.9v-23h60v556H-1V219Z"/><path fill="#061B42" fill-rule="evenodd" d="M1168.4 279.5v11.2h11.7l.5 47.2c-4 .7-8.1.6-12.2.5-.2.6.5 1.2.5 1.3v7.9c3.4-1 7.1-.4 10.7-.5v2.5c.1 3-.4 6.8 0 9.4 0 .6 0 .6.5.8h.5l20.3-.5h.5c1.2-.6.2-19.6.5-22.4 2.7-.3 9.3.6 11.2 0 .8-.2.5-.7.5-1.2.4-2.7.2-7.3-.5-10 0-.3-.2-1 .3-1h35.3v22.9c.5.2 1-.5 1.2-.5h10v46.7h10.1c.2.4-.5.6-.5.8v20.6l9.7-.5-1-33h12.1v-9c0-.1.7-.7.5-1.2h-10.4c-.1 0-.7.7-1.2.5l-.3-47.8h12.5v-8.9c0-.1-.8-.7-.6-1.2 15.4-1.1 30.9-.3 46.3-.5.2.5-.5 1-.5 1.2v10l11.7.4-1 45.3h11.6l-1 22.3h12.2v33.6c3.5.3 7.8-.5 11.2 0h.5v45.2l-11.2-.5.5 24.3c-.7.3-1.5-.5-1.8-.5h-10.9v76.3l11.7-1v48.7h11.2l1 54.9h9.7V686l-32-.3c-1-.5-1.5-5.2-1.6-6.6-.5-5.7-.4-11.8-.5-17.5l-10.2.5v-43.2c-3.6.7-7.4.5-11.1.5v-37c-3.4.2-6.8-.5-10.2-.6h-.5l-1-34c-3.7.5-7.4.6-11.2.5V631l10.7-1v56l-34 .5V674c0-1.7 10.2.4 11.6-.2-.3-6.8.9-13.5.5-20.3l-11.7.5v-80.8h-9.3c-.2 0-1.1 1-1.3.2l.5-45.4h-9.4c-.1 0-1.8.6-1.8.8.6 25-.7 50.3 0 75.4v1.5l10.7-.5V686c-4.6-1.4-9.9-.2-14.5 0-6 .2-13.3-.2-19 .5v-1c0-3.5-.2-7 0-10.5 0-.6.5-1.1.5-1.2h2c2.2 0 5.3.3 7.4 0 .5 0 .6 0 .7-.5.5-1.4 0-8 0-10.2v-19.6c0-.8.4-2.2-.5-2.7v-15.3c1-2.7.5-6.2.5-9.1 0-2.4.5-8.4 0-10.2-.1-.7-.5-.4-1-.5h-1c-2.4-.2-6-.3-8.1.5h-1l-.3-55.4h-10.4V686h-67.6v-.5l.5-91.5h-10.7c-1.2-18.2-.6-36.5-.5-54.9h-11.7L1145 686h-76.2l-26.2-.3c-1-.5-1.4-5.2-1.5-6.6-.5-5.7-.5-11.8-.5-17.5l-5.3.3v.2h-7.4c-.9 0-4.3-1.1-4.3.3V687l-21.4-1-29.2.5V674c0-1.7 10.3.4 11.7-.2-.4-6.8.8-13.5.5-20.3l-11.7.5v-80.8H964c-.2 0-1 1-1.3.2l.5-45.4H954c-.1 0-1.7.6-1.8.8.6 25-.7 50.3 0 75.4v1.5l10.7-.5V686c-4.6-1.4-9.8-.2-14.4 0-6 .2-13.3-.2-19.1.5V675c0-.6.5-1.1.5-1.2h2c2.3 0 5.3.3 7.4 0 .5 0 .6 0 .8-.5.4-1.4 0-8 0-10.2v-19.6c0-.8.3-2.2-.5-2.7v-15.3c.9-2.7.5-6.2.5-9.1 0-2.4.4-8.4 0-10.2-.2-.7-.6-.4-1-.5h-1c-2.5-.2-6-.3-8.2.5h-1l-.3-55.4h-10.4V686h-67.6v-.5l.5-91.5h-10.6c-1.3-18.2-.7-36.5-.5-54.9h-11.7l-.5 146.9h-76.2l-26.4-.3c-1-.5-1.4-5.2-1.5-6.6-.5-5.7-.4-11.8-.5-17.5l-5.2.2v.3h-7.4c-.8 0-4.3-1.1-4.3.3V687l-21.4-1-29.3.5V674c0-1.7 10.3.4 11.7-.2-.3-6.8.8-13.5.5-20.3l-11.7.5v-80.8h-9.4c-.2 0-1 1-1.3.2l.6-45.4h-9.4c-.2 0-1.8.6-1.9.8.6 25-.6 50.3 0 75.4v1.5l10.7-.5V686c-4.5-1.4-9.8-.2-14.4 0-6 .2-13.3-.2-19 .5v-1c0-3.5-.2-7-.1-10.5 0-.6.5-1.1.5-1.2h2c2.3 0 5.3.3 7.5 0 .5 0 .5 0 .7-.5.4-1.4 0-8 0-10.2v-19.6c0-.8.3-2.2-.5-2.7v-15.3c1-2.7.5-6.2.5-9.1 0-2.4.5-8.4 0-10.2-.2-.7-.5-.4-1-.5h-1c-2.5-.2-6-.3-8.2.5h-1l-.2-55.4h-10.5V686h-67.5v-.5l.5-91.5H523c-1.3-18.2-.6-36.5-.5-54.9h-11.7l-.5 146.9H434l-26.2-.3c-1-.5-1.4-5.2-1.6-6.6-.5-5.7-.4-11.8-.5-17.5l-5.2.3v.2H393c-.9 0-4.3-1.1-4.3.3V687l-21.4-1-29.3.5V674c0-1.7 10.3.4 11.7-.2-.3-6.8.9-13.5.5-20.3l-11.6.5v-80.8h-9.4c-.2 0-1.1 1-1.3.2l.5-45.4H319c-.1 0-1.7.6-1.8.8.6 25-.7 50.3 0 75.4v1.5l10.7-.5V686c-4.6-1.4-9.9-.2-14.5 0-6 .2-13.2-.2-19 .5v-1c0-3.5-.2-7 0-10.5 0-.6.5-1.1.5-1.2h2c2.3 0 5.3.3 7.4 0 .5 0 .6 0 .7-.5.5-1.4 0-8 0-10.2v-19.6c0-.8.4-2.2-.5-2.7v-15.3c1-2.7.5-6.2.5-9.1 0-2.4.5-8.4 0-10.2-.1-.7-.5-.4-1-.5h-1c-2.4-.2-6-.3-8.1.5h-1l-.3-55.4h-10.4V686h-67.6v-.5l.5-91.5h-10.7c-1.2-18.2-.6-36.5-.5-54.9h-11.6l-.6 146.9h-76.2l1-135.7H107l-.5 33.6-11.2.5v6l-.5 38.7-11.7.5V662h-7.4c-.9 0-4.3-1.1-4.3.3V687l-22.9-1 .6-12.2h10.1l.5-68.1h10.4c.2 0 .4.6.8.5v-88.9H58.7V404.5c3.8-1 7.8-1.4 11.7-1.5.2-3-.3-6.2 0-9.2v-1h1c.6.9 2.1.5 3 .5h7.7v-10.7H69.9a88 88 0 0 1-.5-11.6c3.8-1.1 8.2 0 12-.5.5 0 1 .2 1.2-.6.4-1.1.1-6.3-.5-7.6v-16.2c0-2.8.4-6.2-.5-8.7v-.5c4-.6 8-.6 12.2-.5.2-3.9-.3-7.8-.5-11.7l34.5-.5v12.2c4 .1 7.8 0 11.7-.5v44.7h-.5c-3.6.5-7.7-.2-11.2-.5v12.2l10.7.5V383c0-.1-.7-.4-.6-.8h11.7v-22.8h20.9v-12.7l11.1.5v-19.8H170l-.6-36.1h12.8l-.6-12.2 34.6.5v11.2h11.7l.5 47.2c-4 .7-8.1.6-12.2.5-.2.6.5 1.2.5 1.3v7.9c3.5-1 7.1-.4 10.7-.5v2.5c.1 3-.4 6.8 0 9.4 0 .6 0 .6.5.8h.5l20.3-.5h.5c1.2-.6.2-19.6.5-22.4 2.8-.3 9.3.6 11.2 0 .8-.2.5-.7.5-1.2.4-2.7.2-7.3-.5-10 0-.3-.2-1 .3-1h35.3v22.9c.5.2 1.1-.5 1.3-.5h9.9v46.7h10.1c.2.4-.5.6-.5.8v20.6l9.7-.5-1-33h12v-9c0-.1.7-.7.6-1.2h-10.5c-.1 0-.7.7-1.2.5l-.3-47.8h12.5v-8.9c0-.1-.7-.7-.5-1.2 15.3-1.1 30.8-.3 46.2-.5.2.5-.5 1-.5 1.2v10l11.7.4-1 45.3h4.4c.2 0 .3-.2.4-.6a18 18 0 0 0-.5-7.6v-16.2c0-2.8.5-6.2-.5-8.7v-.5c4-.6 8.1-.6 12.2-.5.2-3.9-.2-7.8-.5-11.7l34.6-.5v12.2c3.9.1 7.8 0 11.6-.5v44.7h-.5c-3.5.5-7.6-.2-11.2-.5v12.2l10.7.5V383c0-.1-.6-.4-.5-.8H467v-22.8h20.8v-12.7l11.2.5v-19.8h-11.7l-.5-36.1h12.7L499 279l34.6.5v11.2h11.6l.5 47.2c-4 .7-8 .6-12.1.5-.2.6.5 1.2.5 1.3v7.9c3.4-1 7-.4 10.6-.5v2.5c.2 3-.4 6.8 0 9.4.1.6 0 .6.5.8h.6l20.3-.5h.5c1.2-.6.2-19.6.5-22.4 2.7-.3 9.3.6 11.2 0 .7-.2.4-.7.5-1.2.3-2.7.1-7.3-.5-10 0-.3-.3-1 .3-1h35.2v22.9c.6.2 1.2-.5 1.3-.5h10v46.7h10c.2.4-.4.6-.4.8v20.6l9.6-.5-1-33h12.2v-9c0-.1.7-.7.5-1.2h-10.4c-.2 0-.7.7-1.3.5l-.2-47.8h12.4v-8.9c0-.1-.7-.7-.5-1.2 15.4-1.1 30.9-.3 46.2-.5.2.5-.5 1-.5 1.2v10l11.7.4-1 45.3h4.6c.2 0 .3-.2.4-.6.4-1.1.1-6.3-.5-7.6v-16.2c0-2.8.4-6.2-.5-8.7v-.5c4-.6 8.1-.6 12.2-.5.2-3.9-.2-7.8-.5-11.7l34.5-.5v12.2c4 .1 7.8 0 11.7-.5v44.7h-.5c-3.5.5-7.6-.2-11.2-.5v12.2l10.7.5V383c0-.1-.7-.4-.5-.8h11.7v-22.8h20.8v-12.7l11.2.5v-19.8h-11.7l-.5-36.1H817l-.5-12.2 34.5.5v11.2h11.7l.5 47.2c-4 .7-8 .6-12.2.5-.2.6.5 1.2.5 1.3v7.9c3.5-1 7.2-.4 10.7-.5v2.5c.1 3-.4 6.8 0 9.4 0 .6 0 .6.5.8h.5l20.4-.5h.5c1.1-.6.1-19.6.5-22.4 2.7-.3 9.3.6 11.1 0 .8-.2.5-.7.6-1.2.3-2.7.1-7.3-.6-10 0-.3-.2-1 .4-1h35.2v22.9c.6.2 1.1-.5 1.3-.5h9.9v46.7h10.2c0 .4-.6.6-.6.8v20.6l9.7-.5-1-33H973v-9c0-.1.7-.7.5-1.2H963c-.2 0-.7.7-1.3.5l-.3-47.8H974v-8.9c0-.1-.7-.7-.5-1.2 15.3-1.1 30.8-.3 46.2-.5.2.5-.5 1-.5 1.2v10l11.7.4-1 45.3h4.4c.2 0 .4-.2.5-.6a22 22 0 0 0-.5-7.6v-16.2c0-2.8.4-6.2-.5-8.7v-.5c4-.6 8-.6 12.2-.5.2-3.9-.3-7.8-.5-11.7l34.5-.5v12.2c4 .1 7.8 0 11.7-.5v44.7h-.5c-3.6.5-7.7-.2-11.2-.5v12.2l10.6.5V383c0-.1-.6-.4-.5-.8h11.7v-22.8h20.9v-12.7l11.1.5v-19.8h-11.6l-.6-36.1h12.7l-.5-12.2 34.6.5ZM1058.7 584l-6 .2V619h11.2l1 54.9h4l1-123.5h-10.7l-.5 33.6Zm-51.2-36.1c-3.7.5-7.4.6-11.1.5V631l10.6-1v43.7h4.4l.5-68.1h7.3v-23.4c-3.4.3-6.7-.4-10.1-.5h-.6l-1-34Zm-266.2 36-6 .3V619h11.2l1 54.9h4l1-123.5h-10.7l-.5 33.6Zm-51.2-36c-3.8.5-7.5.6-11.2.5V631l10.6-1v43.7h4.5l.6-68.1h7.1v-23.4c-3.4.3-6.7-.4-10.1-.5h-.5l-1-34Zm-541.5-32c.9 10.5.5 21.2.5 31.7 0 11.9.6 24.2 0 36.1 0 1.3-.6 8-1 8.2l-9.1.7-.5 81.3h11.1c0-3.9-.2-8-1-11.7h11.7l.5-146.3h-12.2Zm224.1 32c-3.7.5-7.4.6-11.2.5V631l10.7-1v43.7h4.4l.5-68.1h7.3v-23.4c-3.4.3-6.8-.4-10.2-.5h-.5l-1-34Zm51.1 36-5.9.3V619h11.2l1 54.9h4l.9-123.5h-10.7l-.5 33.6Zm42.2-68c.8 10.5.5 21.2.5 31.7 0 11.9.6 24.2 0 36.1 0 1.3-.7 8-1 8.2l-9.2.7-.5 81.3H467c0-3.9-.3-8-1-11.7h11.7l.5-146.3H466Zm317.4 0c.9 10.5.6 21.2.6 31.7 0 11.9.5 24.2 0 36.1a68 68 0 0 1-1 8.2l-9.2.7-.5 81.3h11.2c0-3.9-.3-8-1-11.7H795l.5-146.3h-12.2Zm317.4 0c.8 10.5.5 21.2.5 31.7 0 11.9.6 24.2 0 36.1 0 1.3-.6 8-1 8.2l-9.1.7-.6 81.3h11.2c0-3.9-.2-8-1-11.7h11.7l.5-146.3h-12.2ZM238.5 662l22.4.5v-79.8h-10.7V528h-11.1l-.6 134.1Zm317.4 0 22.4.5v-79.8h-10.7V528h-11.2l-.4 134Zm317.5 0 22.3.5v-79.8h-10.6V528h-11.2l-.5 134.1Zm317.3 0 22.4.5v-79.8h-10.7V528h-11.2l-.5 134.1Z" clip-rule="evenodd"/><path fill="#FEB100" d="M575 47v68.2h-3.7v7.2h-3.5v7h-3.6v3.7h-3.7v3.6H557v3.5h-3.5v3.7h-7.3v3.6h-10.7v3.5h-21.6v-3.5h-10.7v-3.6H496v-3.7h-3.6v-3.5h-3.7V133h-3.5v-3.6h-3.5v-3.6H478v-7.2h-3.6v-10.8H471V93.6h3.5V79.3h3.6v-7.2h3.7V65h3.5v-3.7h3.5v-3.5h3.7v-3.6h7.1v-3.5h7.2V47H575Zm-18 18h-46.6v3.5h-7.2v3.6h-3.6v3.7h-3.5v7h-3.6v10.8h-3.7v10.8h3.7v10.8h3.6v3.5h3.5v3.7h3.6v3.5h3.6v3.6h10.8v3.7H532v-3.7h7.2v-3.6h7.1v-3.5h3.6v-3.7h3.7v-3.5h-7.3v-3.6h-7v3.6H532v3.5h-14.3v-3.5h-7.2v-3.6h-3.6v-7.2h-3.6V90h3.6v-3.6h3.6v-3.7h3.5v-3.5h32.3v-3.5h7.3V72h3.5v-7Z"/><path fill="#FEB100" d="M739 47.5v21.2c0 .3 6.5-.3 6.5 0v20.4h14V68.7c0-.3 7.3.4 7.3 0V47.5h20.4v69.4h-14V82.6h-6.4v13.8c0 .4-7.4-.3-7.4 0v14h-13.9v-14c0-.3-6.5.4-6.5 0V82.6h-7.3v34.3h-14V47.5H739Z"/><path fill="#FEB100" d="M954.6 47.5c.4.3-.3 6.2 0 6.5.4.3 6.2-.4 6.6 0 .3.4-.4 7 0 7.4.3.3 6-.3 7.3 0v7.3h-21.2c-.4 0 .3-7.3 0-7.3h-13.9v13.8h27.8c.2 1.3-.3 7 0 7.4.3.3 6-.2 7.3 0V103c-1.3.2-7-.3-7.3 0-.4.4.3 7 0 7.4-.4.3-6.2-.4-6.5 0-.3.2.2 5.3 0 6.5h-27.8c-.2-1.2.3-6.3 0-6.5-.3-.3-6 .2-7.4 0v-14h14c.2 0-.4 6.6 0 6.6h21.2V89.1h-21.3c-.3 0 .3-6.5 0-6.5h-13.9V54c1.3-.2 7.1.3 7.4 0 .3-.3-.2-5.3 0-6.5 3.6.7 26.8-1 27.8 0Z"/><path fill="#FEB100" d="M836.2 47.5c.3.3-.4 6.2 0 6.5.3.3 6-.2 7.3 0v35.1c-1.3.3-7-.3-7.3 0-.3.3.2 6 0 7.4h-27.8v20.4h-13.9V47.5c5.1 1 40.2-1.5 41.7 0Zm-27.8 13.8v21.3h21.3V61.3h-21.3Z"/><path fill="#FEB100" d="M648.3 103c-1.2 0-6.3-.2-6.5 0-.4.4.4 7 0 7.4-.4.3-7-.4-7.4 0-.3.2.2 5.3 0 6.5h-27.8c-.2-1.2.3-6.3 0-6.5-.3-.4-6.2.3-6.5 0-.3-.4.4-7 0-7.4-.3-.3-6 .2-7.3 0V61.3c1.3-.2 7 .3 7.3 0 .4-.3-.3-7 0-7.3.4-.4 6.2.3 6.5 0 .3-.3-.2-5.4 0-6.6h27.8c.2 1.3-.3 6.3 0 6.6.4.3 7-.4 7.4 0 .4.3-.4 7 0 7.3.3.3 5.3-.2 6.5 0v14h-13.9v-14h-27.7v35.2c1.3.2 7-.3 7.3 0 .3.3-.2 5.3 0 6.5h14c.2-1.2-.3-6.3 0-6.5.3-.4 6.2.3 6.5 0 .3-.3-.2-6 0-7.4h13.9V103h7.3V82.6c0-.3 6.6.3 6.6 0V68.7c0-.3 7.3.4 7.3 0V47.5H690v21.2c0 .4 7.4-.3 7.4 0v13.9c0 .3 6.5-.3 6.5 0v13.9c0 .3 7.4-.4 7.4 0v20.4h-14V103h-35v13.9h-14c0-4.7.2-9.3 0-13.9h.1Zm35.2-34.3H676v13.9h-6.5V89H690v-6.5h-6.5v-14Z"/><path fill="#FEB100" d="M891.8 47.5c.3.3-.4 6.2 0 6.5.3.4 7-.4 7.3 0 .4.4-.3 7 0 7.4.4.3 6.2-.4 6.6 0 .3.3-.4 7 0 7.3.3.3 6-.2 7.3 0v27.8c-1.3.2-7-.3-7.3 0-.4.4.3 6.2 0 6.5-.4.4-6.2-.3-6.6 0-.3.4.4 7 0 7.4-.3.4-7-.3-7.3 0-.3.3.2 5.4 0 6.6h-20.5c-.2-1.3.4-6.3 0-6.6-.3-.3-7 .4-7.3 0-.4-.3.3-7 0-7.4-.4-.3-6.2.4-6.6 0-.3-.3.4-6.2 0-6.5-.3-.3-6 .2-7.3 0V68.7c1.3-.2 7 .3 7.3 0 .4-.3-.3-7 0-7.3.4-.4 6.2.3 6.6 0 .3-.4-.4-7 0-7.4.3-.4 7 .4 7.3 0 .3-.3-.2-5.3 0-6.5 2.8.5 19.7-.7 20.5 0Zm0 13.8c-.8-.7-17.7.6-20.5 0-.2 1.3.4 7 0 7.4-.3.3-6-.2-7.3 0v27.8c1.3.2 7-.3 7.3 0 .3.3-.2 5.3 0 6.5h20.5c.2-1.2-.3-6.3 0-6.5.3-.3 6 .2 7.3 0V68.7c-1.3-.2-7 .3-7.3 0-.4-.4.3-7 0-7.4Z"/></g><defs><clipPath id="clip0_402_78303"><path fill="#fff" d="M0 0h1440v714H0z"/></clipPath></defs></svg>