<svg xmlns="http://www.w3.org/2000/svg" fill="none" viewBox="0 0 83 137"><path fill="#000" d="M26.456 123.809h2.548c-.005 2.198.005 4.409 0 6.614h-.001v3.306h-2.547v.001h2.548v-3.307h2.323v3.155h2.436V137h-7.307c0-2.103.005-1.167 0-3.27H24.02v-13.215h2.436v3.294ZM50.812 2.705h4.758v3.453h-2.547v3.288h-2.417v.026h2.417v-.007c.85.006 1.698 0 2.547 0v3.288h-2.528v.025h-.019v3.283h-2.417v.025h2.436v-3.308h2.528v-.005h2.436v6.138c-.791 0-1.666-.118-2.417.146v.032c.751-.266 1.638-.152 2.435-.152h2.417v3.307h2.436v9.915h-2.436v3.453h-4.87v-3.307h-2.436v-3.453h-2.436v6.76h2.548v6.31h2.323v3.308h2.325v3.306h2.267c.024-.001.126-.146.135-.221l.033-3.085c.812 0 1.624.012 2.436 0 .009-1.103-.005-2.206 0-3.308H65.2v-3.155h7.195v3.155h2.267c.08 0 .15.254.168.374.098.722 0 2.11 0 2.927.812.012 1.624-.007 2.436 0 .023 1.091-.033 2.202-.001 3.294-.806-.013-1.611.005-2.416 0v.025c.806 0 1.612-.013 2.418-.001l-.001-.01c.811.012 1.623-.007 2.435 0v3.293c-.768-.006-1.54 0-2.304 0v.026c.768 0 1.54-.007 2.304 0v-.013c.812.006 1.624 0 2.436 0v13.07h-4.76v-3.306H74.83c-.005-2.154.005-4.31 0-6.463h-2.436c0-1.102.01-2.205 0-3.307-.811-.013-1.623.006-2.435 0v-3.308h-2.417v.019h-.017c.006.22.11.503.115.799.032 1.976-.033 3.966 0 5.942h-2.16c-.033-.001-.085-.189-.168-.151v3.155h2.324v19.684H65.2v3.155h-2.324v6.614h-4.871v-9.77h2.435v-3.306h2.436l-.111-9.77H60.33v3.308H50.7v3.154c-.817-.031-1.63 0-2.436.153v3.155h-2.305v.025c0 .039-.112.114-.112.152a.963.963 0 0 0-.32-.102l-.024-.004c.146.027.26.06.32.1-.028 1.045.019 2.11 0 3.155-.804 0-1.608-.006-2.412 0v.006h-.023c-.01 1.145.009 2.302 0 3.446h-2.212v3.308h-2.547v16.226H36.08v6.462h-2.324v12.924h2.324v3.605c.807-.152 1.62-.184 2.436-.153v2.858c.008-.003.342-.121.112.298h2.436v3.453H43.5v3.155h2.268c.008.011.167.208.167.228v3.079h-9.85v-6.462H33.65v-6.614h-2.324v-3.308h-2.435v-6.462c-.416.158-2.228-.284-2.421.019-.028 2.147-.006 4.295-.015 6.443H24.02c0 2.148.004 4.309 0 6.463h-2.436v-9.77h-2.436v-9.769h2.436v-9.617h-2.436c.252-1.122-.088-2.161 0-3.308h-2.323v-3.307h-2.212V84.58h-2.435v22.839H9.742v3.308H7.42v3.306H0v-3.306h2.436v-6.615H4.87v-22.84h2.323c.154-1.09.113-2.198.113-3.306h7.419v-3.308h2.104v-3.154h2.323v-3.308h2.324c-.038-.145.112-.323.112-.374v-2.927c.812 0 1.624.007 2.435 0l-.005.02.113 3.307h-2.548v3.155h-2.16a2.37 2.37 0 0 0-.168.227v3.08h-2.323v13.375h.023v-13.37h2.323V71.61s.152-.225.168-.228h2.16v-3.155h2.548l-.112-3.307h2.437c0-1.102-.01-2.205 0-3.308.774-.012 1.553.007 2.323 0v-3.306c.774-.013 1.553.006 2.323 0 0-2.154-.005-4.31 0-6.463l-.019-.006h2.548v-9.77h2.323V22.383h2.548v-6.31h2.16c.061 0 .169-.253.169-.374l.112-6.234h4.982c-.032-.279-.111-.533-.116-.818-.037-1.564-.112-3.915 0-5.417.01-.158.056-.524.177-.525h2.324l.07.089a.726.726 0 0 0-.089-.114H45.99c-.116 0-.163.368-.176.526-.108 1.502-.033 3.852 0 5.417.004.291.083.538.116.816h-4.983l-.112 6.235c0 .12-.103.374-.168.374h-2.16v6.31H35.96v19.684h-2.323v9.77h-2.53c.01-4.344-.004-8.701 0-13.045h-2.435v-9.915h2.435v-3.003h-2.323v-3.605h2.323v-6.158h2.436v-3.308h2.548V6.164c.788-.304 1.628.013 2.435 0V2.712h5.09V0h7.196v2.705ZM24.127 107.59h-2.436l-.112 9.465h.024l.112-9.459h2.435V94.373h-.023v13.217Zm-2.548-13.223h.024V91.22h-.024v3.148Zm-2.323-3.155h.023v-3.148h-.023v3.148Zm33.767-26.31h.019v-3.283h-.019v3.282ZM31.09 58.273c-.774.007-1.554-.012-2.323 0v3.307c-.775.006-1.555-.013-2.325 0-.009 1.102.005 2.205 0 3.308h-2.323V61.58c.775-.006 1.549.013 2.323 0 .01-1.102-.004-2.204 0-3.307.775-.006 1.555.013 2.325 0 .004-2.154-.005-4.308 0-6.462h2.323v6.462Zm46.29.013h.018v-3.13h-.018v3.13Zm-2.548-3.155h.019V51.85h-.019v3.282Zm-9.63-9.922c-.812.006-1.624-.013-2.435 0-.01 1.102.004 2.205 0 3.308H60.33v3.306h-4.74v.026h4.76v-3.308h2.435c.005-1.102-.01-2.204 0-3.307.812-.012 1.624.007 2.436 0V42.08h7.175v-.025h-7.194v3.155Zm-34.094 6.627-.018-.026h.018v.026Zm41.288-3.295c.005 1.094-.009 2.188 0 3.282h.018c-.009-1.094.006-2.188.001-3.282h-.019Zm-19.242 0h2.417v-.024h-2.417v.024Zm16.92-.024h.018v-3.283h-.019v3.283Zm2.341-3.309v.026c.806.007 1.611-.013 2.417 0v-.025c-.806-.013-1.611.005-2.417-.001ZM50.718 42.08h2.417v-.025h-2.417v.025Zm-2.324-3.307H50.7v-.025h-2.304v.025Zm-2.547-6.64v.026c.847 0 1.695-.063 2.529.147v-.02c-.834-.214-1.682-.148-2.53-.153Zm14.594-3.307c-.127-.17-1.567.14-1.838.134-.203 0-.38-.125-.579-.133v.025h-.018l.074.005c.173.026.34.127.523.127.272 0 1.712-.31 1.838-.132v-.026Zm-4.87 0h.018v-3.13h-.019v3.13Zm-7.195-3.154h.019v-3.428h-.019v3.428Zm-4.965-3.282h2.417v-.026h-2.417v.026Zm14.613 0h2.417v-.026h-2.417v.026ZM45.85 16.116c.061.111.085.344.095.457.15 1.724-.103 3.872-.005 5.646h.018c-.094-1.77.154-3.905.006-5.62-.011-.124-.04-.387-.114-.483Zm2.652-9.952h2.086V6.14h-2.086v.025Z"/></svg>