<svg xmlns="http://www.w3.org/2000/svg" fill="none" viewBox="0 0 1440 810"><g clip-path="url(#clip0_402_79239)"><path fill="#5CA8FF" d="M0 0h1440v810H0z"/><path fill="#05990D" d="M0 712h1440v98H0z"/><path fill="#244872" stroke="#0A2442" stroke-width="7.2" d="M718.2 198.1c201.5 0 417.6 18 583.3 36a7581.2 7581.2 0 0 1 275.9 35.3l4 .6 1 .1h.2v.1l-.5 3.6.6-3.6 3 .5v386.1h-1735V270.7l3-.5.5 3.6-.5-3.6h.3l1-.2 4-.6a3328 3328 0 0 1 73-10.5c49.6-6.7 119.9-15.7 202.7-24.7 165.8-18 381.9-36 583.4-36Z"/><path fill="#2D6AB1" d="M-1.7 291.8h12v12h-12z"/><path fill="#2D6AB1" d="M27.2 303.8h12v12h-12z"/><path fill="#2D6AB1" d="M63.2 303.8h12v12h-12z"/><path fill="#2D6AB1" d="M92 291.8h12v12H92z"/><path fill="#2D6AB1" d="M120.8 303.8h12v12h-12z"/><path fill="#2D6AB1" d="M156.8 303.8h12v12h-12z"/><path fill="#2D6AB1" d="M185.7 291.8h12v12h-12z"/><path fill="#2D6AB1" d="M214.5 303.8h12v12h-12z"/><path fill="#2D6AB1" d="M250.5 303.8h12v12h-12z"/><path fill="#2D6AB1" d="M279.3 291.8h12v12h-12z"/><path fill="#2D6AB1" d="M308.1 303.8h12v12h-12z"/><path fill="#2D6AB1" d="M344.2 303.8h12v12h-12z"/><path fill="#2D6AB1" d="M373 291.8h12v12h-12z"/><path fill="#2D6AB1" d="M401.8 303.8h12v12h-12z"/><path fill="#2D6AB1" d="M437.8 303.8h12v12h-12z"/><path fill="#2D6AB1" d="M466.6 291.8h12v12h-12z"/><path fill="#2D6AB1" d="M495.5 303.8h12v12h-12z"/><path fill="#2D6AB1" d="M531.5 303.8h12v12h-12z"/><path fill="#2D6AB1" d="M560.3 291.8h12v12h-12z"/><path fill="#2D6AB1" d="M589.1 303.8h12v12h-12z"/><path fill="#2D6AB1" d="M625.1 303.8h12v12h-12z"/><path fill="#2D6AB1" d="M654 291.8h12v12h-12z"/><path fill="#2D6AB1" d="M682.8 303.8h12v12h-12z"/><path fill="#2D6AB1" d="M718.8 303.8h12v12h-12z"/><path fill="#2D6AB1" d="M747.6 291.8h12v12h-12z"/><path fill="#2D6AB1" d="M776.4 303.8h12v12h-12z"/><path fill="#2D6AB1" d="M812.5 303.8h12v12h-12z"/><path fill="#2D6AB1" d="M841.3 291.8h12v12h-12z"/><path fill="#2D6AB1" d="M870.1 303.8h12v12h-12z"/><path fill="#2D6AB1" d="M906.1 303.8h12v12h-12z"/><path fill="#2D6AB1" d="M934.9 291.8h12v12h-12z"/><path fill="#2D6AB1" d="M963.8 303.8h12v12h-12z"/><path fill="#2D6AB1" d="M999.8 303.8h12v12h-12z"/><path fill="#2D6AB1" d="M1028.6 291.8h12v12h-12z"/><path fill="#2D6AB1" d="M1057.4 303.8h12v12h-12z"/><path fill="#2D6AB1" d="M1093.4 303.8h12v12h-12z"/><path fill="#2D6AB1" d="M1122.3 291.8h12v12h-12z"/><path fill="#2D6AB1" d="M1151.1 303.8h12v12h-12z"/><path fill="#2D6AB1" d="M1187.1 303.8h12v12h-12z"/><path fill="#2D6AB1" d="M1215.9 291.8h12v12h-12z"/><path fill="#2D6AB1" d="M1244.7 303.8h12v12h-12z"/><path fill="#2D6AB1" d="M1280.8 303.8h12v12h-12z"/><path fill="#2D6AB1" d="M1309.6 291.8h12v12h-12z"/><path fill="#2D6AB1" d="M1338.4 303.8h12v12h-12z"/><path fill="#2D6AB1" d="M1374.4 303.8h12v12h-12z"/><path fill="#2D6AB1" d="M1403.2 291.8h12v12h-12z"/><path fill="#2D6AB1" d="M1432 303.8h12v12h-12z"/><path fill="#F6520F" d="M-1.7 339.8h12v12h-12z"/><path fill="#F6520F" d="M27.2 351.8h12v12h-12z"/><path fill="#F6520F" d="M63.2 351.8h12v12h-12z"/><path fill="#F6520F" d="M92 339.8h12v12H92z"/><path fill="#F6520F" d="M120.8 351.8h12v12h-12z"/><path fill="#F6520F" d="M156.8 351.8h12v12h-12z"/><path fill="#F6520F" d="M185.7 339.8h12v12h-12z"/><path fill="#F6520F" d="M214.5 351.8h12v12h-12z"/><path fill="#F6520F" d="M250.5 351.8h12v12h-12z"/><path fill="#F6520F" d="M279.3 339.8h12v12h-12z"/><path fill="#F6520F" d="M308.1 351.8h12v12h-12z"/><path fill="#F6520F" d="M344.2 351.8h12v12h-12z"/><path fill="#F6520F" d="M373 339.8h12v12h-12z"/><path fill="#F6520F" d="M401.8 351.8h12v12h-12z"/><path fill="#F6520F" d="M437.8 351.8h12v12h-12z"/><path fill="#F6520F" d="M466.6 339.8h12v12h-12z"/><path fill="#F6520F" d="M495.5 351.8h12v12h-12z"/><path fill="#F6520F" d="M531.5 351.8h12v12h-12z"/><path fill="#F6520F" d="M560.3 339.8h12v12h-12z"/><path fill="#F6520F" d="M589.1 351.8h12v12h-12z"/><path fill="#F6520F" d="M625.1 351.8h12v12h-12z"/><path fill="#F6520F" d="M654 339.8h12v12h-12z"/><path fill="#F6520F" d="M682.8 351.8h12v12h-12z"/><path fill="#F6520F" d="M718.8 351.8h12v12h-12z"/><path fill="#F6520F" d="M747.6 339.8h12v12h-12z"/><path fill="#F6520F" d="M776.4 351.8h12v12h-12z"/><path fill="#F6520F" d="M812.5 351.8h12v12h-12z"/><path fill="#F6520F" d="M841.3 339.8h12v12h-12z"/><path fill="#F6520F" d="M870.1 351.8h12v12h-12z"/><path fill="#F6520F" d="M906.1 351.8h12v12h-12z"/><path fill="#F6520F" d="M934.9 339.8h12v12h-12z"/><path fill="#F6520F" d="M963.8 351.8h12v12h-12z"/><path fill="#F6520F" d="M999.8 351.8h12v12h-12z"/><path fill="#F6520F" d="M1028.6 339.8h12v12h-12z"/><path fill="#F6520F" d="M1057.4 351.8h12v12h-12z"/><path fill="#F6520F" d="M1093.4 351.8h12v12h-12z"/><path fill="#F6520F" d="M1122.3 339.8h12v12h-12z"/><path fill="#F6520F" d="M1151.1 351.8h12v12h-12z"/><path fill="#F6520F" d="M1187.1 351.8h12v12h-12z"/><path fill="#F6520F" d="M1215.9 339.8h12v12h-12z"/><path fill="#F6520F" d="M1244.7 351.8h12v12h-12z"/><path fill="#F6520F" d="M1280.8 351.8h12v12h-12z"/><path fill="#F6520F" d="M1309.6 339.8h12v12h-12z"/><path fill="#F6520F" d="M1338.4 351.8h12v12h-12z"/><path fill="#F6520F" d="M1374.4 351.8h12v12h-12z"/><path fill="#F6520F" d="M1403.2 339.8h12v12h-12z"/><path fill="#F6520F" d="M1432 351.8h12v12h-12z"/><path fill="#2D6AB1" d="M-1.7 387.8h12v12h-12z"/><path fill="#2D6AB1" d="M27.2 399.8h12v12h-12z"/><path fill="#2D6AB1" d="M63.2 399.8h12v12h-12z"/><path fill="#2D6AB1" d="M92 387.8h12v12H92z"/><path fill="#2D6AB1" d="M120.8 399.8h12v12h-12z"/><path fill="#2D6AB1" d="M156.8 399.8h12v12h-12z"/><path fill="#2D6AB1" d="M185.7 387.8h12v12h-12z"/><path fill="#2D6AB1" d="M214.5 399.8h12v12h-12z"/><path fill="#2D6AB1" d="M250.5 399.8h12v12h-12z"/><path fill="#2D6AB1" d="M279.3 387.8h12v12h-12z"/><path fill="#2D6AB1" d="M308.1 399.8h12v12h-12z"/><path fill="#2D6AB1" d="M344.2 399.8h12v12h-12z"/><path fill="#2D6AB1" d="M373 387.8h12v12h-12z"/><path fill="#2D6AB1" d="M401.8 399.8h12v12h-12z"/><path fill="#2D6AB1" d="M437.8 399.8h12v12h-12z"/><path fill="#2D6AB1" d="M466.6 387.8h12v12h-12z"/><path fill="#2D6AB1" d="M495.5 399.8h12v12h-12z"/><path fill="#2D6AB1" d="M531.5 399.8h12v12h-12z"/><path fill="#2D6AB1" d="M560.3 387.8h12v12h-12z"/><path fill="#2D6AB1" d="M589.1 399.8h12v12h-12z"/><path fill="#2D6AB1" d="M625.1 399.8h12v12h-12z"/><path fill="#2D6AB1" d="M654 387.8h12v12h-12z"/><path fill="#2D6AB1" d="M682.8 399.8h12v12h-12z"/><path fill="#2D6AB1" d="M718.8 399.8h12v12h-12z"/><path fill="#2D6AB1" d="M747.6 387.8h12v12h-12z"/><path fill="#2D6AB1" d="M776.4 399.8h12v12h-12z"/><path fill="#2D6AB1" d="M812.5 399.8h12v12h-12z"/><path fill="#2D6AB1" d="M841.3 387.8h12v12h-12z"/><path fill="#2D6AB1" d="M870.1 399.8h12v12h-12z"/><path fill="#2D6AB1" d="M906.1 399.8h12v12h-12z"/><path fill="#2D6AB1" d="M934.9 387.8h12v12h-12z"/><path fill="#2D6AB1" d="M963.8 399.8h12v12h-12z"/><path fill="#2D6AB1" d="M999.8 399.8h12v12h-12z"/><path fill="#2D6AB1" d="M1028.6 387.8h12v12h-12z"/><path fill="#2D6AB1" d="M1057.4 399.8h12v12h-12z"/><path fill="#2D6AB1" d="M1093.4 399.8h12v12h-12z"/><path fill="#2D6AB1" d="M1122.3 387.8h12v12h-12z"/><path fill="#2D6AB1" d="M1151.1 399.8h12v12h-12z"/><path fill="#2D6AB1" d="M1187.1 399.8h12v12h-12z"/><path fill="#2D6AB1" d="M1215.9 387.8h12v12h-12z"/><path fill="#2D6AB1" d="M1244.7 399.8h12v12h-12z"/><path fill="#2D6AB1" d="M1280.8 399.8h12v12h-12z"/><path fill="#2D6AB1" d="M1309.6 387.8h12v12h-12z"/><path fill="#2D6AB1" d="M1338.4 399.8h12v12h-12z"/><path fill="#2D6AB1" d="M1374.4 399.8h12v12h-12z"/><path fill="#2D6AB1" d="M1403.2 387.8h12v12h-12z"/><path fill="#2D6AB1" d="M1432 399.8h12v12h-12z"/><path fill="#F6520F" d="M-1.7 435.9h12v12h-12z"/><path fill="#F6520F" d="M27.2 447.9h12v12h-12z"/><path fill="#F6520F" d="M63.2 447.9h12v12h-12z"/><path fill="#F6520F" d="M92 435.9h12v12H92z"/><path fill="#F6520F" d="M120.8 447.9h12v12h-12z"/><path fill="#F6520F" d="M156.8 447.9h12v12h-12z"/><path fill="#F6520F" d="M185.7 435.9h12v12h-12z"/><path fill="#F6520F" d="M214.5 447.9h12v12h-12z"/><path fill="#F6520F" d="M250.5 447.9h12v12h-12z"/><path fill="#F6520F" d="M279.3 435.9h12v12h-12z"/><path fill="#F6520F" d="M308.1 447.9h12v12h-12z"/><path fill="#F6520F" d="M344.2 447.9h12v12h-12z"/><path fill="#F6520F" d="M373 435.9h12v12h-12z"/><path fill="#F6520F" d="M401.8 447.9h12v12h-12z"/><path fill="#F6520F" d="M437.8 447.9h12v12h-12z"/><path fill="#F6520F" d="M466.6 435.9h12v12h-12z"/><path fill="#F6520F" d="M495.5 447.9h12v12h-12z"/><path fill="#F6520F" d="M531.5 447.9h12v12h-12z"/><path fill="#F6520F" d="M560.3 435.9h12v12h-12z"/><path fill="#F6520F" d="M589.1 447.9h12v12h-12z"/><path fill="#F6520F" d="M625.1 447.9h12v12h-12z"/><path fill="#F6520F" d="M654 435.9h12v12h-12z"/><path fill="#F6520F" d="M682.8 447.9h12v12h-12z"/><path fill="#F6520F" d="M718.8 447.9h12v12h-12z"/><path fill="#F6520F" d="M747.6 435.9h12v12h-12z"/><path fill="#F6520F" d="M776.4 447.9h12v12h-12z"/><path fill="#F6520F" d="M812.5 447.9h12v12h-12z"/><path fill="#F6520F" d="M841.3 435.9h12v12h-12z"/><path fill="#F6520F" d="M870.1 447.9h12v12h-12z"/><path fill="#F6520F" d="M906.1 447.9h12v12h-12z"/><path fill="#F6520F" d="M934.9 435.9h12v12h-12z"/><path fill="#F6520F" d="M963.8 447.9h12v12h-12z"/><path fill="#F6520F" d="M999.8 447.9h12v12h-12z"/><path fill="#F6520F" d="M1028.6 435.9h12v12h-12z"/><path fill="#F6520F" d="M1057.4 447.9h12v12h-12z"/><path fill="#F6520F" d="M1093.4 447.9h12v12h-12z"/><path fill="#F6520F" d="M1122.3 435.9h12v12h-12z"/><path fill="#F6520F" d="M1151.1 447.9h12v12h-12z"/><path fill="#F6520F" d="M1187.1 447.9h12v12h-12z"/><path fill="#F6520F" d="M1215.9 435.9h12v12h-12z"/><path fill="#F6520F" d="M1244.7 447.9h12v12h-12z"/><path fill="#F6520F" d="M1280.8 447.9h12v12h-12z"/><path fill="#F6520F" d="M1309.6 435.9h12v12h-12z"/><path fill="#F6520F" d="M1338.4 447.9h12v12h-12z"/><path fill="#F6520F" d="M1374.4 447.9h12v12h-12z"/><path fill="#F6520F" d="M1403.2 435.9h12v12h-12z"/><path fill="#F6520F" d="M1432 447.9h12v12h-12z"/><path fill="#2D6AB1" d="M-1.7 483.9h12v12h-12z"/><path fill="#2D6AB1" d="M27.2 495.9h12v12h-12z"/><path fill="#2D6AB1" d="M63.2 495.9h12v12h-12z"/><path fill="#2D6AB1" d="M92 483.9h12v12H92z"/><path fill="#2D6AB1" d="M120.8 495.9h12v12h-12z"/><path fill="#2D6AB1" d="M156.8 495.9h12v12h-12z"/><path fill="#2D6AB1" d="M185.7 483.9h12v12h-12z"/><path fill="#2D6AB1" d="M214.5 495.9h12v12h-12z"/><path fill="#2D6AB1" d="M250.5 495.9h12v12h-12z"/><path fill="#2D6AB1" d="M279.3 483.9h12v12h-12z"/><path fill="#2D6AB1" d="M308.1 495.9h12v12h-12z"/><path fill="#2D6AB1" d="M344.2 495.9h12v12h-12z"/><path fill="#2D6AB1" d="M373 483.9h12v12h-12z"/><path fill="#2D6AB1" d="M401.8 495.9h12v12h-12z"/><path fill="#2D6AB1" d="M437.8 495.9h12v12h-12z"/><path fill="#2D6AB1" d="M466.6 483.9h12v12h-12z"/><path fill="#2D6AB1" d="M495.5 495.9h12v12h-12z"/><path fill="#2D6AB1" d="M531.5 495.9h12v12h-12z"/><path fill="#2D6AB1" d="M560.3 483.9h12v12h-12z"/><path fill="#2D6AB1" d="M589.1 495.9h12v12h-12z"/><path fill="#2D6AB1" d="M625.1 495.9h12v12h-12z"/><path fill="#2D6AB1" d="M654 483.9h12v12h-12z"/><path fill="#2D6AB1" d="M682.8 495.9h12v12h-12z"/><path fill="#2D6AB1" d="M718.8 495.9h12v12h-12z"/><path fill="#2D6AB1" d="M747.6 483.9h12v12h-12z"/><path fill="#2D6AB1" d="M776.4 495.9h12v12h-12z"/><path fill="#2D6AB1" d="M812.5 495.9h12v12h-12z"/><path fill="#2D6AB1" d="M841.3 483.9h12v12h-12z"/><path fill="#2D6AB1" d="M870.1 495.9h12v12h-12z"/><path fill="#2D6AB1" d="M906.1 495.9h12v12h-12z"/><path fill="#2D6AB1" d="M934.9 483.9h12v12h-12z"/><path fill="#2D6AB1" d="M963.8 495.9h12v12h-12z"/><path fill="#2D6AB1" d="M999.8 495.9h12v12h-12z"/><path fill="#2D6AB1" d="M1028.6 483.9h12v12h-12z"/><path fill="#2D6AB1" d="M1057.4 495.9h12v12h-12z"/><path fill="#2D6AB1" d="M1093.4 495.9h12v12h-12z"/><path fill="#2D6AB1" d="M1122.3 483.9h12v12h-12z"/><path fill="#2D6AB1" d="M1151.1 495.9h12v12h-12z"/><path fill="#2D6AB1" d="M1187.1 495.9h12v12h-12z"/><path fill="#2D6AB1" d="M1215.9 483.9h12v12h-12z"/><path fill="#2D6AB1" d="M1244.7 495.9h12v12h-12z"/><path fill="#2D6AB1" d="M1280.8 495.9h12v12h-12z"/><path fill="#2D6AB1" d="M1309.6 483.9h12v12h-12z"/><path fill="#2D6AB1" d="M1338.4 495.9h12v12h-12z"/><path fill="#2D6AB1" d="M1374.4 495.9h12v12h-12z"/><path fill="#2D6AB1" d="M1403.2 483.9h12v12h-12z"/><path fill="#2D6AB1" d="M1432 495.9h12v12h-12z"/><path fill="#F6520F" d="M-1.7 531.9h12v12h-12z"/><path fill="#F6520F" d="M27.2 543.9h12v12h-12z"/><path fill="#F6520F" d="M63.2 543.9h12v12h-12z"/><path fill="#F6520F" d="M92 531.9h12v12H92z"/><path fill="#F6520F" d="M120.8 543.9h12v12h-12z"/><path fill="#F6520F" d="M156.8 543.9h12v12h-12z"/><path fill="#F6520F" d="M185.7 531.9h12v12h-12z"/><path fill="#F6520F" d="M214.5 543.9h12v12h-12z"/><path fill="#F6520F" d="M250.5 543.9h12v12h-12z"/><path fill="#F6520F" d="M279.3 531.9h12v12h-12z"/><path fill="#F6520F" d="M308.1 543.9h12v12h-12z"/><path fill="#F6520F" d="M344.2 543.9h12v12h-12z"/><path fill="#F6520F" d="M373 531.9h12v12h-12z"/><path fill="#F6520F" d="M401.8 543.9h12v12h-12z"/><path fill="#F6520F" d="M437.8 543.9h12v12h-12z"/><path fill="#F6520F" d="M466.6 531.9h12v12h-12z"/><path fill="#F6520F" d="M495.5 543.9h12v12h-12z"/><path fill="#F6520F" d="M531.5 543.9h12v12h-12z"/><path fill="#F6520F" d="M560.3 531.9h12v12h-12z"/><path fill="#F6520F" d="M589.1 543.9h12v12h-12z"/><path fill="#F6520F" d="M625.1 543.9h12v12h-12z"/><path fill="#F6520F" d="M654 531.9h12v12h-12z"/><path fill="#F6520F" d="M682.8 543.9h12v12h-12z"/><path fill="#F6520F" d="M718.8 543.9h12v12h-12z"/><path fill="#F6520F" d="M747.6 531.9h12v12h-12z"/><path fill="#F6520F" d="M776.4 543.9h12v12h-12z"/><path fill="#F6520F" d="M812.5 543.9h12v12h-12z"/><path fill="#F6520F" d="M841.3 531.9h12v12h-12z"/><path fill="#F6520F" d="M870.1 543.9h12v12h-12z"/><path fill="#F6520F" d="M906.1 543.9h12v12h-12z"/><path fill="#F6520F" d="M934.9 531.9h12v12h-12z"/><path fill="#F6520F" d="M963.8 543.9h12v12h-12z"/><path fill="#F6520F" d="M999.8 543.9h12v12h-12z"/><path fill="#F6520F" d="M1028.6 531.9h12v12h-12z"/><path fill="#F6520F" d="M1057.4 543.9h12v12h-12z"/><path fill="#F6520F" d="M1093.4 543.9h12v12h-12z"/><path fill="#F6520F" d="M1122.3 531.9h12v12h-12z"/><path fill="#F6520F" d="M1151.1 543.9h12v12h-12z"/><path fill="#F6520F" d="M1187.1 543.9h12v12h-12z"/><path fill="#F6520F" d="M1215.9 531.9h12v12h-12z"/><path fill="#F6520F" d="M1244.7 543.9h12v12h-12z"/><path fill="#F6520F" d="M1280.8 543.9h12v12h-12z"/><path fill="#F6520F" d="M1309.6 531.9h12v12h-12z"/><path fill="#F6520F" d="M1338.4 543.9h12v12h-12z"/><path fill="#F6520F" d="M1374.4 543.9h12v12h-12z"/><path fill="#F6520F" d="M1403.2 531.9h12v12h-12z"/><path fill="#F6520F" d="M1432 543.9h12v12h-12z"/><path fill="#2D6AB1" d="M-1.7 580h12v12h-12z"/><path fill="#2D6AB1" d="M27.2 592h12v12h-12z"/><path fill="#2D6AB1" d="M63.2 592h12v12h-12z"/><path fill="#2D6AB1" d="M92 580h12v12H92z"/><path fill="#2D6AB1" d="M120.8 592h12v12h-12z"/><path fill="#2D6AB1" d="M156.8 592h12v12h-12z"/><path fill="#2D6AB1" d="M185.7 580h12v12h-12z"/><path fill="#2D6AB1" d="M214.5 592h12v12h-12z"/><path fill="#2D6AB1" d="M250.5 592h12v12h-12z"/><path fill="#2D6AB1" d="M279.3 580h12v12h-12z"/><path fill="#2D6AB1" d="M308.1 592h12v12h-12z"/><path fill="#2D6AB1" d="M344.2 592h12v12h-12z"/><path fill="#2D6AB1" d="M373 580h12v12h-12z"/><path fill="#2D6AB1" d="M401.8 592h12v12h-12z"/><path fill="#2D6AB1" d="M437.8 592h12v12h-12z"/><path fill="#2D6AB1" d="M466.6 580h12v12h-12z"/><path fill="#2D6AB1" d="M495.5 592h12v12h-12z"/><path fill="#2D6AB1" d="M531.5 592h12v12h-12z"/><path fill="#2D6AB1" d="M560.3 580h12v12h-12z"/><path fill="#2D6AB1" d="M589.1 592h12v12h-12z"/><path fill="#2D6AB1" d="M625.1 592h12v12h-12z"/><path fill="#2D6AB1" d="M654 580h12v12h-12z"/><path fill="#2D6AB1" d="M682.8 592h12v12h-12z"/><path fill="#2D6AB1" d="M718.8 592h12v12h-12z"/><path fill="#2D6AB1" d="M747.6 580h12v12h-12z"/><path fill="#2D6AB1" d="M776.4 592h12v12h-12z"/><path fill="#2D6AB1" d="M812.5 592h12v12h-12z"/><path fill="#2D6AB1" d="M841.3 580h12v12h-12z"/><path fill="#2D6AB1" d="M870.1 592h12v12h-12z"/><path fill="#2D6AB1" d="M906.1 592h12v12h-12z"/><path fill="#2D6AB1" d="M934.9 580h12v12h-12z"/><path fill="#2D6AB1" d="M963.8 592h12v12h-12z"/><path fill="#2D6AB1" d="M999.8 592h12v12h-12z"/><path fill="#2D6AB1" d="M1028.6 580h12v12h-12z"/><path fill="#2D6AB1" d="M1057.4 592h12v12h-12z"/><path fill="#2D6AB1" d="M1093.4 592h12v12h-12z"/><path fill="#2D6AB1" d="M1122.3 580h12v12h-12z"/><path fill="#2D6AB1" d="M1151.1 592h12v12h-12z"/><path fill="#2D6AB1" d="M1187.1 592h12v12h-12z"/><path fill="#2D6AB1" d="M1215.9 580h12v12h-12z"/><path fill="#2D6AB1" d="M1244.7 592h12v12h-12z"/><path fill="#2D6AB1" d="M1280.8 592h12v12h-12z"/><path fill="#2D6AB1" d="M1309.6 580h12v12h-12z"/><path fill="#2D6AB1" d="M1338.4 592h12v12h-12z"/><path fill="#2D6AB1" d="M1374.4 592h12v12h-12z"/><path fill="#2D6AB1" d="M1403.2 580h12v12h-12z"/><path fill="#2D6AB1" d="M1432 592h12v12h-12z"/><path fill="#F6520F" d="M-145.8 650.8h1729.1V712H-145.8z"/><path fill="#0A2442" d="M-145.8 617.2h1726.7v33.6H-145.8z"/><path fill="#fff" fill-opacity=".3" d="M-80.9 661.6H75.2v40.8H-80.9z"/><path fill="#fff" fill-opacity=".3" d="M195.3 661.6h85.3v40.8h-85.3z"/><path fill="#fff" fill-opacity=".3" d="M400.6 661.6h156.1v40.8H400.6z"/><path fill="#fff" fill-opacity=".3" d="M676.8 661.6h156.1v40.8H676.8z"/><path fill="#fff" fill-opacity=".3" d="M952.9 661.6h85.3v40.8h-85.3z"/><path fill="#fff" fill-opacity=".3" d="M1158.3 661.6h156.1v40.8h-156.1z"/><path fill="#fff" fill-opacity=".3" d="M1434.5 661.6h85.3v40.8h-85.3z"/><path fill="#FEFEFE" d="M47.5 126h18.7v3.1h9.4v3h6.2v3.3h3v3.2h6.3v3h3.2v3.2h3v3h6.4v-3h3v-3.2h9.5v3.2h3v3H135v3.2h3.1v3h-6.3v3.2H10v-9.4h6.2v-3h6.3v3h21.8v-3h-3v-3.2H28.7v-6.2H35v-3.2h3v-3h3.2V126h6.2Z"/><path fill="#FEE6AB" d="M47.5 126v-3h6.2v-3.3h22v3.2h6.1v3h6.3v3.2h3v3h3.2v3.3h3v3.2h3.2v3h3.2v-3h9.3v-3.2h6.2v3.2h6.3v3h3.1v6.2h-9.4v-3h-3v-3.2h-9.4v3.2h-3v3h-6.4v-3h-3v-3.2H91v-3h-6v-3.2h-3v-3.2h-6.3v-3h-9.4V126H47.5Z"/><path fill="#FEE6AB" d="M28.7 141.6h12.6v3.2h3v3H22.5v-3h3.1v-3.2h3Z"/><path fill="#FEFEFE" d="M1328.5 38.2h18.7v3.2h9.4v3h6.2v3.2h3v3.2h6.3v3h3.2V57h3v3h6.4v-3h3v-3h9.5v3h3v3h15.7v3.3h3.1v3h-6.3v3.2H1291V60h6.2v-3h6.3v3h21.8v-3h-3v-3.2h-12.6v-6.3h6.4v-3.1h3v-3h3.2v-3.3h6.2Z"/><path fill="#FEE6AB" d="M1328.5 38.2v-3h6.2V32h22v3.2h6.1v3h6.3v3.2h3v3h3.2v3.2h3v3.2h3.2v3h3.2v-3h9.3v-3.2h6.2v3.2h6.3v3h3.1v6.3h-9.4v-3h-3v-3.2h-9.4V57h-3v3h-6.4v-3h-3v-3h-3.3v-3h-6.2v-3.3h-3v-3.2h-6.3v-3h-9.4v-3.2h-18.7Z"/><path fill="#FEE6AB" d="M1309.7 53.8h12.6V57h3v3h-21.8v-3h3.2v-3.2h3Z"/><path fill="#FEE6AB" d="M1060.3 123v-2.4h11.5v2.3h4.6v2.2h4.6v2.3h4.5v4.7h2.4v4.5h-2.4v-2.2h-4.5v-2.3h-2.3v-2.4h-4.7v-2.3h-6.8v-2.3h-6.9v-2.2Z"/><path fill="#FEE6AB" d="M1090.2 136.6v2.3h-2.3v-2.3h2.3Z"/><path fill="#FEE6AB" d="M975.3 97.6v-2.3h4.6V93h2.2v-2.4h29.9V93h11.5v2.2h2.3v2.3h4.7v2.3h2.2v2.3h4.6v2.2h2.4v2.4h2.3v2.3h2.2v2.3h2.3v2.3h2.3v4.6h2.4v2.3h2.1v2.3h2.4v2.2h2.3v4.7h2.3v2.3h2.2v2.3h2.3v2.2h2.4v2.3h2.3v2.4h-7v-2.4h-2.2v-2.3h-2.3v-2.2h-2.3V132h-4.5v-2.3h-2.4v-2.4h-2.3V125h-4.5v-2.2h-2.3v-2.3h-2.4v-2.3h-2.3v-2.4h-2.3v-2.2h-2.2v-2.3h-2.3V109h-2.4v-2.4h-4.5v-2.3h-4.7v-2.2h-4.6V100h-6.9v-2.3h-13.8v-2.4H982v2.4h-6.8Z"/><path fill="#FEFEFE" d="M975.3 97.6h6.8v-2.3h9.2v2.3h13.8v2.3h6.9v2.3h4.6v2.2h4.7v2.4h4.5v2.3h2.4v2.3h2.3v2.3h2.2v2.2h2.3v2.4h2.3v2.3h2.4v2.3h2.3v2.2h4.5v2.3h2.3v2.4h2.4v2.3h4.5v2.3h2.3v2.2h2.3v2.3h2.2v2.4h7v-2.4h-2.3v-2.3h-2.4v-2.2h-2.3v-2.3h-2.2v-2.3h-2.3V125h-2.3v-2.2h4.6v2.2h6.9v2.3h6.8v2.4h4.7v2.3h2.3v2.3h4.5v2.2h2.4v2.3h2.3v-2.3h-2.3v-2.2h2.3v2.2h2.3v2.3h4.5v2.4h4.7v4.5h-11.5v2.3H885.7v-2.3H881v-2.2h2.3v-2.3h2.4v-2.4h4.5v-2.3h2.3v-2.2h2.3V132h2.4v-2.3h4.5v-2.4h2.3V125h2.3v-2.2h2.4v-2.3h2.1v2.3H927v2.2h4.5v2.3h4.7v2.4h4.5v2.3h2.3v2.3h2.4v2.2h2.3v2.3h4.5v-2.3H950V132h-2.3v-2.3h-2.3v-2.4H943V123h2.4v-2.3h2.3v-2.3h2.3V116h2.2v-2.1h2.3v-2.4h2.4v-2.3h2.3v-2.3h2.2v-2.4h4.7v-2.1h2.3V100h2.3v-2.3h4.5Z"/><path fill="#FEE6AB" d="M910.9 120.6v-2.4h20.7v2.4h4.6v2.3h6.9v4.5h2.3v2.3h2.3v2.4h2.4v4.5h2.1v2.3h-4.5v-2.3h-2.3v-2.2h-2.3v-2.3h-2.4v-2.4h-4.5v-2.3h-4.6v-2.3H927v-2.2h-16.2v-2.3Z"/><path fill="#FEE6AB" d="M501.7 30.5v-1.9h3.8v1.9h-3.8Z"/><path fill="#FEFEFE" d="M455.7 23v1.8h1.8v1.9h11.2v2h3.6v1.8h3.6v1.8h2V34h3.6v2h1.8v2h1.8v1.8h2v1.9h1.7v3.6h1.8v2h3.7V49h2v1.8h1.7v3.8h1.8v1.9h1.8v1.8h16.6v-3.7h-5.4v-2h-2v-1.8H509V49h-1.8v-5.6h-3.6v-3.7h-2V38h-1.8v-3.8h3.8v-1.8h3.6v1.8h1.8V36h1.8v2h2v1.8h1.8v1.8h1.8v1.8h1.8v1.8h1.8v2h3.8V49h1.8v2h1.8v1.8h1.8v2h2v-2h1.7v2h1.9v1.8h1.8v1.8h3.7v1.8h3.6v-1.8h-3.6v-1.8h-1.8v-1.8h-3.7v-2h3.7v2h7.2v-2h7.4v2h22.2v1.8h11v1.8H601V64h-11.1v1.8h-16.5v1.9H555v1.8h-16.4v1.8H533v2h-9.1V75H294v-1.8h1.8v-2h1.8v-1.8h5.6v-1.9h3.6v-1.8h1.8V64h1.8v-2h3.8v-1.8h1.8v-1.8h5.6v-1.9h1.8v-1.8h3.6v-3.8h5.5V49h1.8v-1.8h3.8v-2h1.8v-1.8h1.8v-1.9h3.6v-1.8h2V38h3.6v-2h11v2h2v1.8h1.8v5.5h-1.8v9.4h1.8v3.7h5.4V60h9.2v1.8h7.3V60h3.8v-1.8h-2v-1.9h-3.6v-1.8h-3.6v-2h-5.5v-1.8h-1.9v-3.6h3.7v-2h1.8v-1.8h3.7v-1.9h3.6v-1.8h1.9v1.8h5.5v1.9h1.8v1.8h5.6v2h1.8V49h1.8v1.8h3.8v1.8h16.5v-1.8h-3.7V49H419v-1.8h3.6v-2h1.8v-1.8h2v-3.7h1.7V38h1.9v-4h3.7v-1.8h3.6v-1.9h3.6v-1.8h5.6v-2h3.6v-1.8h3.8V23h1.8Z"/><path fill="#FEE6AB" d="M354.7 36v-2h1.8v-1.8h11V34h1.8v1.8h1.8V49h3.8v1.8h1.8v1.8h5.5v2h3.6v1.8h3.7v1.9h2V60h-3.8v1.8h-7.4V60H371v-1.8h-5.4v-3.7h-1.8v-9.4h1.8v-5.5h-1.8V38h-2v-2h-7.2Z"/><path fill="#FEE6AB" d="M389.5 39.7V38h9.3v1.8h3.6v1.9h1.8v1.8h3.8v1.8h3.6v2h7.4V49h3.6v1.8h3.8v1.8h-16.6v-1.8H406V49h-1.8v-1.8h-1.8v-2h-5.6v-1.8H395v-1.9h-5.5v-1.8Z"/><path fill="#FEE6AB" d="M538.5 54.6v1.8h1.8v1.9h3.6V60h-3.6v-1.8h-3.7v-1.9h-1.8v-1.8h3.7Z"/><path fill="#FEE6AB" d="M463 23h9.3v1.8h5.5v1.9h1.9v2h3.6v1.8h3.7v1.8h9.2v-1.8h9.2v-1.9h1.8v1.9h1.8v1.8h3.8V34h1.8v2h1.8v2h1.8v1.8h1.8v1.9h2v1.8h1.8v1.8h1.8v2h3.6V49h2v1.8h1.7v1.9h5.6v2H533v-2h-1.8v2h-2v-2h-1.7v-1.9h-1.8V49h-1.8v-1.8H520v-2h-1.8v-1.8h-1.8v-1.8h-1.8v-1.9h-1.8V38h-2v-2H509v-1.8h-1.8v-1.8h-3.6V34h-3.8v3.8h1.8v1.8h2v3.7h3.6V49h1.8v1.8h1.8v1.8h2v2h5.4v3.7h-16.6v-1.9h-1.8v-1.8H498v-3.8h-1.8V49h-2v-1.8h-3.6v-2h-1.8v-3.7H487v-1.8h-2V38h-1.7v-2h-1.8v-1.8h-3.7v-1.8h-2v-1.8h-3.5v-1.9h-3.6v-2h-11.2v-1.8h-1.8V23h7.4Z"/><path fill="#fff" d="M1381.6 758.2h7.2v19.2h-7.2v-19.2Z"/><path fill="#fff" d="M56 758.2h7v19.2h-7v-19.2Z"/><path fill="#fff" d="M99.1 758.2h7.3v19.2H99v-19.2Z"/><path fill="#fff" d="M142.4 758.2h7.2v19.2h-7.2v-19.2Z"/><path fill="#fff" d="M185.6 758.2h7.2v19.2h-7.2v-19.2Z"/><path fill="#fff" d="M13.9 758.2H21v209h-7.2v-209Z"/><path fill="#fff" d="M276.9 758.2h7.2v19.2h-7.2v-19.2Z"/><path fill="#fff" d="M320 758.2h7.3v19.2H320v-19.2Z"/><path fill="#fff" d="M363.3 758.2h7.2v19.2h-7.2v-19.2Z"/><path fill="#fff" d="M406.5 758.2h7.2v19.2h-7.2v-19.2Z"/><path fill="#fff" d="M234.8 758.2h7.2v209h-7.2v-209Z"/><path fill="#fff" d="M497.8 758.2h7.2v19.2h-7.2v-19.2Z"/><path fill="#fff" d="M541 758.2h7.2v19.2H541v-19.2Z"/><path fill="#fff" d="M584.3 758.2h7.2v19.2h-7.2v-19.2Z"/><path fill="#fff" d="M627.5 758.2h7.2v19.2h-7.2v-19.2Z"/><path fill="#fff" d="M455.8 758.2h7.2v209h-7.2v-209Z"/><path fill="#fff" d="M718.7 758.2h7.2v19.2h-7.2v-19.2Z"/><path fill="#fff" d="M762 758.2h7.2v19.2H762v-19.2Z"/><path fill="#fff" d="M805.2 758.2h7.2v19.2h-7.2v-19.2Z"/><path fill="#fff" d="M848.4 758.2h7.2v19.2h-7.2v-19.2Z"/><path fill="#fff" d="M676.7 758.2h7.2v209h-7.2v-209Z"/><path fill="#fff" d="M939.7 758.2h7.2v19.2h-7.2v-19.2Z"/><path fill="#fff" d="M983 758.2h7.1v19.2H983v-19.2Z"/><path fill="#fff" d="M1026.1 758.2h7.2v19.2h-7.2v-19.2Z"/><path fill="#fff" d="M1069.4 758.2h7.2v19.2h-7.2v-19.2Z"/><path fill="#fff" d="M897.7 758.2h7.2v209h-7.2v-209Z"/><path fill="#fff" d="M1160.6 758.2h7.2v19.2h-7.2v-19.2Z"/><path fill="#fff" d="M1203.8 758.2h7.3v19.2h-7.3v-19.2Z"/><path fill="#fff" d="M1247 758.2h7.3v19.2h-7.2v-19.2Z"/><path fill="#fff" d="M1290.3 758.2h7.2v19.2h-7.2v-19.2Z"/><path fill="#fff" d="M1118.6 758.2h7.2v209h-7.2v-209Z"/><path fill="#fff" d="M1339.5 758.2h7.2v209h-7.2v-209Z"/><path fill="#fff" d="M1440.1 739v19.2H-39V739h1479.1Z"/></g><defs><clipPath id="clip0_402_79239"><path fill="#fff" d="M0 0h1440v810H0z"/></clipPath></defs></svg>