<svg xmlns="http://www.w3.org/2000/svg" fill="none" viewBox="0 0 473 44"><path fill="#FEB200" d="M197.6 1v4.8h4.3l.4.4v4h3.1v26.4h-3.1V40h-4.4v3h-20.5v-3h-4.2v-3.4h-3.7V10.2h2.7V6l.4-.4h4V1.1h21Zm-17.3 33.2H194c.3 0 0-24.5-.3-24.5h-13.5v24.5Z"/><path fill="#FEB200" d="M239.4 1v4.4h4.2v9h-9.4V10h-12.8v4.4h8.3v5h9.7v4.1h4l.7.7v12.5l-.4.4h-4.3V43h-23.2l-.3-.4V37h-4.5v-7.3h9.7v4.7h13.5v-6h-8.8v-4.5h-10v-4.7h-4l-.4-.4V5.6h4.5V1h23.5Z"/><path fill="#FEB200" d="M69.3 1v4.8h4.5v4.5h3.4L76.8 43H66.3l-.4-.4V32.2H54v10.7H44V5.8h4.8L48.7 1h20.6Zm-3.1 8.7H53.4v13.6h12.8V9.7Z"/><path fill="#FEB200" d="M26.2 1v4.8h5v4.3h3.6v4.6H24.2l-.4-.4V9.9H10.5v24.3l13.3-.2v-4l.4-.5h10.6V37h-4.1v3.6h-4V43l-22.3-.3v-5.3L4 37H0V5.5h4.4V1.1h21.8Z"/><path fill="#FEB200" d="M93.7 1v4.5h3.9V10h4v4.5h4.8V9.9h4.1V5.2h4.1V1.5l.4-.4h8.8v41.3h-9.5V19.9h-4.7v3.8h-4.2v4.5h-3.9v-4.5h-3.8V20h-4l-.4 22.7h-9.4l-.4-.4V1.1h10.2Z"/><path fill="#FEB200" d="M158.8 1v4.5h4.5v18h-5V28H140v14.6h-10.7V1.1h29.5Zm-19.4 8.7v10h13.7v-10h-13.7Z"/><path fill="#FEB200" d="m391.6 0 .2 7.7c0 .2-.5.7-.6.7h-22.4V16h17v8h-17v8.7h22.8v7.7l-33 .4V0h33Z"/><path fill="#FEB200" d="M425 4.5h5.3v7.8H421V8.1h-12.3V16h12.6v3.7h4.8v3.6h4.8v11.2h-5v6.3h-22.7v-6.4h-5v-5h10.2v3.3H421v-8.6h-17.1l-.4-.4v-3.8h-5.1l-.4-.4V5l.4-.4h5V0c0-.2 21.6 0 21.7 0v4.4Z"/><path fill="#FEB200" d="M472.2 0v8.4h-12.8v32.4h-9.8l-.2-32.4h-12.3V0h35Z"/><path fill="#FEB200" d="M328 0v32.7h14.4V0h10v34.5h-4.2v6.3H322v-6.3h-4.5V0H328Z"/><path fill="#FEB200" d="M304.5 0v4.5h4.8l.1 30h-5v3.2h5v6.2h-9.9v-3.1h-21v-6.5h-4.4V4.5h4.7V0h25.7Zm-5 8.1h-15.2v24.6H295v-2.4h-3.4v-5.2h6V28h1.9V8.1Z"/></svg>