<svg xmlns="http://www.w3.org/2000/svg" width="567" height="53" fill="none"><path fill="#FEB200" d="M237.21 1.28v5.65h5.18c.03 0 .47.44.47.47v4.94c.05.04 3.8.04 3.77 0v31.62h-3.77v4.08h-5.27c-.05 0 0 3.47 0 3.45h-24.58v-3.45h-5.03v-4.08h-4.4v-31.7c0-.16 3.15.16 3.15 0V7.1c0-.04.44-.48.47-.48h4.87V1.28h25.14Zm-20.74 39.85h16.58c.35 0-.05-29.5-.4-29.5h-16.18v29.5ZM287.48 1.28v5.26c.05.05 5.02-.06 5.02 0v10.75c-.05.05-11.15.09-11.3 0v-5.34h-15.4v5.34h10.05v5.96h11.62v5.02h4.87c.06 0 .79.73.79.79v15.06c0 .03-.44.47-.48.47h-5.18v6.9h-27.8c-.04 0-.48-.44-.48-.47v-6.75h-5.34v-8.79h11.63v5.65h16.18v-7.21h-10.52v-5.34H259.2v-5.64h-4.87c-.03 0-.47-.45-.47-.48V6.7s5.39.02 5.34 0V1.28h28.28ZM83.26 1.28v5.65h5.34v5.47h4.1l-.5 39.08H79.65c-.03 0-.47-.44-.47-.47V38.6H64.72v12.87h-12.1l.31-44.56h5.82l-.32-5.65h24.82v.01Zm-3.77 10.35h-15.4v16.32h15.4V11.63ZM31.42 1.28V7h5.97v5.18s4.35.02 4.4 0v5.42H29.05c-.03 0-.47-.45-.47-.48v-5.17H12.56v29.18l16.03-.32v-4.86c0-.03.44-.47.47-.47h12.72v8.78h-4.95c.03.08.04 4.4 0 4.4h-4.79v2.82l-26.7-.32v-6.43c0-.03-.45-.47-.48-.47H0V6.6h5.34V1.28h26.08ZM112.48 1.28v5.33h4.7v5.34c.1.03 4.75-.02 4.72 0v5.33h5.81v-5.33c.05-.02 5.03-.06 5.03 0V6.3h4.87V1.75c0-.03.44-.47.47-.47h10.52l.01 49.58H137.3V23.87h-5.65v4.64h-5.03v5.4h-4.71v-5.4c-.01.03-4.65.04-4.64 0v-4.64h-4.78l-.47 27.3H100.7c-.03 0-.47-.44-.47-.47V1.28h12.25ZM190.71 1.28v5.33h5.34v21.65h-5.97v5.34h-22v17.57H155.2V1.28h35.51Zm-23.27 10.35v11.93h16.36V11.63h-16.36ZM470.21.05l.24 9.22c-.04.22-.62.82-.7.82h-26.87c.06.14.02 9.02 0 9.1h20.42v9.73h-20.42v10.35h27.33v9.26l-39.58.47V.05h39.58ZM510.32 5.38h6.39v9.42H505.4V9.78h-14.77v9.42h15.08v4.46c.1-.02 5.78-.02 5.82 0 0 .05.08 4.28 0 4.32h5.8v13.5h-5.96V49h-27.34v-7.68h-5.97V35.2c.02-.05 12.22-.05 12.26 0v4.07h15.08V28.92h-20.58c-.03 0-.47-.44-.47-.47V23.9h-6.13c-.03 0-.47-.44-.47-.47V5.86c0-.04.44-.48.47-.48h6.13V.1c0-.22 25.9.02 25.97 0 0 .04-.02 5.24 0 5.3ZM566.98.05V10.1h-15.4v38.9H539.8l-.15-38.9h-14.77c.05-.02-.06-10.08 0-10.04h42.1ZM393.86.05v39.22h17.29V.05h11.94v41.42h-5.03V49h-31.42v-7.53h-5.34V.05h12.56ZM365.6.05V5.4h5.8l.16 36.08h-5.97v3.77h5.97v7.53h-11.94V49H334.5v-7.84h-5.34V5.38h5.65V.05h30.8Zm-5.98 9.73h-18.23v29.49h12.89v-2.83h-4.09v-6.27h7.23v3.45h2.2V9.78Z"/></svg>