<svg xmlns="http://www.w3.org/2000/svg" width="300" height="87" fill="none"><path fill="#FEB200" d="M2 2h295.03v82.03H2V2Z"/><path stroke="#000" stroke-width="4" d="M2 2h295.03v82.03H2V2Z"/><path fill="#000" d="M41.8 49.33c.13.51.2 1.15.2 1.92 0 .74-.07 1.38-.2 1.92h-1.92c.13.52.2 1.16.2 1.92 0 .74-.07 1.38-.2 1.93h-9.6a8.47 8.47 0 0 1-.2-1.93c0-.76.07-1.4.2-1.92h-1.92a8.46 8.46 0 0 1-.2-1.92c0-.77.07-1.4.2-1.92h-1.92a8.47 8.47 0 0 1-.2-1.92c0-.77.07-1.41.2-1.92a8.47 8.47 0 0 1-.2-1.92c0-.77.07-1.41.2-1.92a8.48 8.48 0 0 1-.2-1.93c0-.76.07-1.4.2-1.92h1.92a8.46 8.46 0 0 1-.2-1.92c0-.77.07-1.4.2-1.92h1.92a8.46 8.46 0 0 1-.2-1.92c0-.77.07-1.41.2-1.92h9.6c.13.51.2 1.15.2 1.92 0 .74-.07 1.38-.2 1.92h1.92c.13.51.2 1.15.2 1.92 0 .74-.07 1.38-.2 1.92h-3.84a8.47 8.47 0 0 1-.19-1.92c0-.77.06-1.4.2-1.92H32.2c.13.51.2 1.15.2 1.92 0 .74-.07 1.38-.2 1.92h-1.92c.13.52.19 1.16.19 1.92a7.9 7.9 0 0 1-.2 1.93c.14.5.2 1.15.2 1.92 0 .73-.06 1.37-.2 1.92.14.51.2 1.15.2 1.92 0 .74-.06 1.38-.2 1.92h1.93c.13.51.2 1.15.2 1.92 0 .74-.07 1.38-.2 1.92h5.76a8.47 8.47 0 0 1-.19-1.92c0-.77.06-1.4.2-1.92h3.84-.01Zm19.24 3.84c.12.52.19 1.16.19 1.92 0 .74-.07 1.38-.2 1.93H47.6a8.47 8.47 0 0 1-.2-1.93c0-.76.07-1.4.2-1.92a8.46 8.46 0 0 1-.2-1.92c0-.77.07-1.4.2-1.92a8.47 8.47 0 0 1-.2-1.92c0-.77.07-1.41.2-1.92a8.46 8.46 0 0 1-.2-1.92c0-.77.07-1.41.2-1.92a8.48 8.48 0 0 1-.2-1.93c0-.76.07-1.4.2-1.92a8.46 8.46 0 0 1-.2-1.92c0-.77.07-1.4.2-1.92a8.46 8.46 0 0 1-.2-1.92c0-.77.07-1.41.2-1.92h3.84c.13.51.2 1.15.2 1.92 0 .74-.07 1.38-.2 1.92.13.51.2 1.15.2 1.92 0 .74-.07 1.38-.2 1.92.13.52.2 1.16.2 1.92 0 .74-.07 1.38-.2 1.93.13.5.2 1.15.2 1.92 0 .73-.07 1.37-.2 1.92.13.51.2 1.15.2 1.92 0 .74-.07 1.38-.2 1.92.13.51.2 1.15.2 1.92 0 .74-.07 1.38-.2 1.92h9.6Zm16.35 0c.12.52.19 1.16.19 1.92 0 .74-.07 1.38-.2 1.93h-9.6a8.47 8.47 0 0 1-.2-1.93c0-.76.07-1.4.2-1.92h2.88a8.46 8.46 0 0 1-.2-1.92c0-.77.07-1.4.2-1.92a8.47 8.47 0 0 1-.2-1.92c0-.77.07-1.41.2-1.92a8.46 8.46 0 0 1-.2-1.92c0-.77.07-1.41.2-1.92a8.48 8.48 0 0 1-.2-1.93c0-.76.07-1.4.2-1.92a8.46 8.46 0 0 1-.2-1.92c0-.77.07-1.4.2-1.92h-2.88a8.46 8.46 0 0 1-.2-1.92c0-.77.07-1.41.2-1.92h9.6c.13.51.2 1.15.2 1.92 0 .74-.07 1.38-.2 1.92H74.5c.13.51.2 1.15.2 1.92 0 .74-.07 1.38-.2 1.92.13.52.2 1.16.2 1.92 0 .74-.07 1.38-.2 1.93.13.5.2 1.15.2 1.92 0 .73-.07 1.37-.2 1.92.13.51.2 1.15.2 1.92 0 .74-.07 1.38-.2 1.92.13.51.2 1.15.2 1.92 0 .74-.07 1.38-.2 1.92h2.89Zm22.1-3.84c.14.51.2 1.15.2 1.92 0 .74-.06 1.38-.2 1.92h-1.91c.12.52.19 1.16.19 1.92 0 .74-.07 1.38-.2 1.93h-9.6a8.47 8.47 0 0 1-.2-1.93c0-.76.07-1.4.2-1.92h-1.92a8.47 8.47 0 0 1-.2-1.92c0-.77.07-1.4.2-1.92h-1.92a8.47 8.47 0 0 1-.2-1.92c0-.77.07-1.41.2-1.92a8.46 8.46 0 0 1-.2-1.92c0-.77.07-1.41.2-1.92a8.48 8.48 0 0 1-.2-1.93c0-.76.07-1.4.2-1.92h1.92a8.47 8.47 0 0 1-.2-1.92c0-.77.07-1.4.2-1.92h1.92a8.46 8.46 0 0 1-.2-1.92c0-.77.07-1.41.2-1.92h9.6c.13.51.2 1.15.2 1.92 0 .74-.07 1.38-.2 1.92h1.93c.13.51.19 1.15.19 1.92 0 .74-.06 1.38-.2 1.92h-3.83a8.47 8.47 0 0 1-.2-1.92c0-.77.07-1.4.2-1.92h-5.77c.13.51.2 1.15.2 1.92 0 .74-.07 1.38-.2 1.92h-1.92c.13.52.2 1.16.2 1.92 0 .74-.07 1.38-.2 1.93.13.5.2 1.15.2 1.92 0 .73-.07 1.37-.2 1.92.13.51.2 1.15.2 1.92 0 .74-.07 1.38-.2 1.92h1.92c.13.51.2 1.15.2 1.92 0 .74-.07 1.38-.2 1.92h5.77a8.47 8.47 0 0 1-.2-1.92c0-.77.07-1.4.2-1.92h3.84-.01Zm19.24 3.84c.13.52.2 1.16.2 1.92 0 .74-.07 1.38-.2 1.93h-3.84a8.46 8.46 0 0 1-.2-1.93c0-.76.07-1.4.2-1.92h-1.45a8.48 8.48 0 0 1-.19-1.92c0-.77.07-1.4.2-1.92h-2.89a8.48 8.48 0 0 1-.19-1.92c0-.77.07-1.41.2-1.92h-3.37c.13.51.2 1.15.2 1.92 0 .74-.07 1.38-.2 1.92.13.51.2 1.15.2 1.92 0 .74-.07 1.38-.2 1.92.13.52.2 1.16.2 1.92 0 .74-.07 1.38-.2 1.93h-3.84a8.46 8.46 0 0 1-.2-1.93c0-.76.07-1.4.2-1.92a8.43 8.43 0 0 1-.2-1.92c0-.77.07-1.4.2-1.92a8.43 8.43 0 0 1-.2-1.92c0-.77.07-1.41.2-1.92a8.43 8.43 0 0 1-.2-1.92c0-.77.07-1.41.2-1.92a8.46 8.46 0 0 1-.2-1.93c0-.76.07-1.4.2-1.92a8.43 8.43 0 0 1-.2-1.92c0-.77.07-1.4.2-1.92a8.43 8.43 0 0 1-.2-1.92c0-.77.07-1.41.2-1.92h3.84c.13.51.2 1.15.2 1.92 0 .74-.07 1.38-.2 1.92.13.51.2 1.15.2 1.92 0 .74-.07 1.38-.2 1.92.13.52.2 1.16.2 1.92 0 .74-.07 1.38-.2 1.93h3.36a8.46 8.46 0 0 1-.19-1.93c0-.76.07-1.4.2-1.92h2.88a8.43 8.43 0 0 1-.2-1.92c0-.77.07-1.4.2-1.92h1.44a8.43 8.43 0 0 1-.2-1.92c0-.77.07-1.41.2-1.92h3.84c.13.51.2 1.15.2 1.92 0 .74-.07 1.38-.2 1.92h-1.44c.13.51.19 1.15.19 1.92 0 .74-.06 1.38-.2 1.92h-2.87c.12.52.19 1.16.19 1.92 0 .74-.07 1.38-.2 1.93H112c.13.5.2 1.15.2 1.92 0 .73-.07 1.37-.2 1.92h2.4c.13.51.2 1.15.2 1.92 0 .74-.07 1.38-.2 1.92h2.89c.13.51.19 1.15.19 1.92 0 .74-.06 1.38-.2 1.92h1.45Zm38.65-21.13a8.3 8.3 0 0 1-.19 1.92h-5.76c.13.51.19 1.15.19 1.92 0 .74-.06 1.38-.2 1.92.14.52.2 1.16.2 1.92a7.9 7.9 0 0 1-.2 1.93c.14.5.2 1.15.2 1.92 0 .73-.06 1.37-.2 1.92.14.51.2 1.15.2 1.92 0 .74-.06 1.38-.2 1.92.14.51.2 1.15.2 1.92 0 .74-.06 1.38-.2 1.92.14.52.2 1.16.2 1.92a7.9 7.9 0 0 1-.2 1.93h-3.83a8.46 8.46 0 0 1-.2-1.93c0-.76.07-1.4.2-1.92a8.43 8.43 0 0 1-.2-1.92c0-.77.07-1.4.2-1.92a8.43 8.43 0 0 1-.2-1.92c0-.77.07-1.41.2-1.92a8.43 8.43 0 0 1-.2-1.92c0-.77.07-1.41.2-1.92a8.46 8.46 0 0 1-.2-1.93c0-.76.07-1.4.2-1.92a8.43 8.43 0 0 1-.2-1.92c0-.77.07-1.4.2-1.92h-5.77a8.43 8.43 0 0 1-.2-1.92c0-.77.07-1.41.2-1.92h15.37c.13.51.2 1.15.2 1.92h-.01Zm19.04 9.6c.13.52.2 1.16.2 1.93 0 .73-.07 1.37-.2 1.92.13.51.2 1.15.2 1.92 0 .74-.07 1.38-.2 1.92h-1.44c.13.51.2 1.15.2 1.92 0 .74-.07 1.38-.2 1.92h-2.4c.13.52.2 1.16.2 1.92 0 .74-.07 1.38-.2 1.93h-7.69a8.46 8.46 0 0 1-.19-1.93c0-.76.07-1.4.2-1.92h-2.4a8.43 8.43 0 0 1-.2-1.92c0-.77.06-1.4.2-1.92h-1.45a8.48 8.48 0 0 1-.19-1.92c0-.77.06-1.41.2-1.92a8.43 8.43 0 0 1-.2-1.92c0-.77.06-1.41.2-1.92a8.46 8.46 0 0 1-.2-1.93c0-.76.06-1.4.2-1.92h1.43a8.48 8.48 0 0 1-.19-1.92c0-.77.06-1.4.2-1.92h2.4a8.43 8.43 0 0 1-.2-1.92c0-.77.07-1.41.2-1.92h7.68c.13.51.2 1.15.2 1.92 0 .74-.07 1.38-.2 1.92h2.4c.13.51.2 1.15.2 1.92 0 .74-.07 1.38-.2 1.92h1.44c.13.52.2 1.16.2 1.92 0 .74-.07 1.38-.2 1.93v-.01Zm-3.84 7.69a8.43 8.43 0 0 1-.2-1.92c0-.77.07-1.41.2-1.92a8.43 8.43 0 0 1-.2-1.92c0-.77.07-1.41.2-1.92a8.46 8.46 0 0 1-.2-1.93c0-.76.07-1.4.2-1.92h-1.44a8.43 8.43 0 0 1-.2-1.92c0-.77.07-1.4.2-1.92h-4.8c.12.51.19 1.15.19 1.92 0 .74-.07 1.38-.2 1.92h-1.44c.13.52.2 1.16.2 1.92 0 .74-.07 1.38-.2 1.93.13.5.2 1.15.2 1.92 0 .73-.07 1.37-.2 1.92.13.51.2 1.15.2 1.92 0 .74-.07 1.38-.2 1.92h1.45c.12.51.19 1.15.19 1.92 0 .74-.07 1.38-.2 1.92h4.8a8.48 8.48 0 0 1-.18-1.92c0-.77.06-1.4.19-1.92h1.44Zm42.5-13.45c0 .74-.07 1.38-.2 1.92.13.52.2 1.16.2 1.92 0 .74-.07 1.38-.2 1.93h-1.92c.13.5.2 1.15.2 1.92 0 .73-.07 1.37-.2 1.92h-9.6c.12.51.19 1.15.19 1.92 0 .74-.07 1.38-.2 1.92.13.51.2 1.15.2 1.92 0 .74-.07 1.38-.2 1.92.13.52.2 1.16.2 1.92 0 .74-.07 1.38-.2 1.93h-3.84a8.46 8.46 0 0 1-.19-1.93c0-.76.07-1.4.2-1.92a8.43 8.43 0 0 1-.2-1.92c0-.77.07-1.4.2-1.92a8.43 8.43 0 0 1-.2-1.92c0-.77.07-1.41.2-1.92a8.43 8.43 0 0 1-.2-1.92c0-.77.07-1.41.2-1.92a8.46 8.46 0 0 1-.2-1.93c0-.76.07-1.4.2-1.92a8.43 8.43 0 0 1-.2-1.92c0-.77.07-1.4.2-1.92a8.43 8.43 0 0 1-.2-1.92c0-.77.07-1.41.2-1.92h13.44c.13.51.2 1.15.2 1.92 0 .74-.07 1.38-.2 1.92h1.92c.13.51.2 1.15.2 1.92Zm-4.04 5.77a8.46 8.46 0 0 1-.2-1.93c0-.76.07-1.4.2-1.92a8.43 8.43 0 0 1-.2-1.92c0-.77.07-1.4.2-1.92h-7.68c.12.51.19 1.15.19 1.92 0 .74-.07 1.38-.2 1.92.13.52.2 1.16.2 1.92 0 .74-.07 1.38-.2 1.93h7.7-.01Zm23.08 11.52c.12.52.19 1.16.19 1.92 0 .74-.07 1.38-.2 1.93h-13.44a8.46 8.46 0 0 1-.2-1.93c0-.76.07-1.4.2-1.92a8.43 8.43 0 0 1-.2-1.92c0-.77.07-1.4.2-1.92a8.43 8.43 0 0 1-.2-1.92c0-.77.07-1.41.2-1.92a8.43 8.43 0 0 1-.2-1.92c0-.77.07-1.41.2-1.92a8.46 8.46 0 0 1-.2-1.93c0-.76.07-1.4.2-1.92a8.43 8.43 0 0 1-.2-1.92c0-.77.07-1.4.2-1.92a8.43 8.43 0 0 1-.2-1.92c0-.77.07-1.41.2-1.92h3.84c.13.51.2 1.15.2 1.92 0 .74-.07 1.38-.2 1.92.13.51.2 1.15.2 1.92 0 .65-.06 1.29-.2 1.92.13.52.2 1.16.2 1.92 0 .74-.07 1.38-.2 1.93.13.5.2 1.15.2 1.92 0 .65-.06 1.29-.2 1.92.13.51.2 1.15.2 1.92 0 .74-.07 1.38-.2 1.92.13.51.2 1.15.2 1.92 0 .74-.07 1.38-.2 1.92h9.61Zm19.42-1.92c0 .74-.07 1.38-.2 1.92.13.52.2 1.16.2 1.92 0 .74-.07 1.38-.2 1.93h-3.84a8.46 8.46 0 0 1-.19-1.93c0-.76.06-1.4.2-1.92a8.43 8.43 0 0 1-.2-1.92c0-.77.06-1.4.2-1.92h-7.7c.14.51.2 1.15.2 1.92 0 .74-.06 1.38-.2 1.92.14.52.2 1.16.2 1.92a7.9 7.9 0 0 1-.2 1.93h-3.83a8.46 8.46 0 0 1-.2-1.93c0-.76.07-1.4.2-1.92a8.43 8.43 0 0 1-.2-1.92c0-.77.07-1.4.2-1.92h1.44a8.43 8.43 0 0 1-.2-1.92c0-.77.07-1.41.2-1.92a8.43 8.43 0 0 1-.2-1.92c0-.77.07-1.41.2-1.92h.96a8.46 8.46 0 0 1-.2-1.93c0-.76.07-1.4.2-1.92h1.44a8.43 8.43 0 0 1-.2-1.92c0-.77.07-1.4.2-1.92h.96a8.43 8.43 0 0 1-.2-1.92c0-.77.07-1.41.2-1.92h5.76c.13.51.2 1.15.2 1.92 0 .74-.07 1.38-.2 1.92h.96c.13.51.2 1.15.2 1.92 0 .74-.07 1.38-.2 1.92h1.44c.13.52.2 1.16.2 1.92 0 .74-.07 1.38-.2 1.93h.97c.12.5.19 1.15.19 1.92 0 .73-.07 1.37-.2 1.92.13.51.2 1.15.2 1.92 0 .74-.07 1.38-.2 1.92h1.45c.12.51.19 1.15.19 1.92Zm-5.48-5.76a8.48 8.48 0 0 1-.19-1.92c0-.77.06-1.41.2-1.92h-.97a8.4 8.4 0 0 1-.2-1.93c0-.76.07-1.4.2-1.92h-2.88c.13.52.2 1.16.2 1.92 0 .74-.07 1.38-.2 1.93h-.96c.13.5.2 1.15.2 1.92 0 .73-.07 1.37-.2 1.92h4.8Zm24.7-13.45c0 .74-.06 1.38-.18 1.92.13.51.19 1.15.19 1.92 0 .74-.06 1.38-.2 1.92h-1.92c.13.52.2 1.16.2 1.92 0 .74-.07 1.38-.2 1.93h-1.92c.13.5.2 1.15.2 1.92 0 .73-.07 1.37-.2 1.92h-1.92c.13.51.2 1.15.2 1.92 0 .74-.07 1.38-.2 1.92.13.51.2 1.15.2 1.92 0 .74-.07 1.38-.2 1.92.13.52.2 1.16.2 1.92 0 .74-.07 1.38-.2 1.93h-3.84a8.46 8.46 0 0 1-.2-1.93c0-.76.07-1.4.2-1.92a8.43 8.43 0 0 1-.2-1.92c0-.77.07-1.4.2-1.92a8.43 8.43 0 0 1-.2-1.92c0-.77.07-1.41.2-1.92h-1.92a8.43 8.43 0 0 1-.2-1.92c0-.77.07-1.41.2-1.92h-1.92a8.46 8.46 0 0 1-.2-1.93c0-.76.07-1.4.2-1.92h-1.92a8.43 8.43 0 0 1-.2-1.92c0-.77.07-1.4.2-1.92a8.43 8.43 0 0 1-.2-1.92c0-.77.07-1.41.2-1.92h3.84c.13.51.2 1.15.2 1.92 0 .74-.07 1.38-.2 1.92.13.51.2 1.15.2 1.92 0 .74-.07 1.38-.2 1.92h1.92c.13.52.2 1.16.2 1.92 0 .74-.07 1.38-.2 1.93h3.84a8.46 8.46 0 0 1-.19-1.93c0-.76.06-1.4.2-1.92h1.91a8.48 8.48 0 0 1-.19-1.92c0-.77.07-1.4.2-1.92a8.43 8.43 0 0 1-.2-1.92c0-.77.07-1.41.2-1.92h3.84c.13.51.19 1.15.19 1.92h-.01Z"/></svg>